<svg width="88" height="66" viewBox="0 0 88 66" fill="none" xmlns="http://www.w3.org/2000/svg">
<path d="M0.757812 0.0869141H87.4245V65.0869H0.757812V0.0869141Z" fill="#DE2910"/>
<path d="M11.1578 24.1369L17.0077 6.58691L22.8576 24.1369L7.25781 13.4119H26.7576L11.1578 24.1369Z" fill="#FFDE00"/>
<path d="M36.5315 6.92319L30.5112 8.25733L34.527 3.57778L34.1331 9.87584L30.7922 4.30017L36.5315 6.92319Z" fill="#FFDE00"/>
<path d="M42.608 14.6236L36.5415 13.5183L42.0578 10.7626L39.2522 16.4149L38.3353 9.9799L42.608 14.6236Z" fill="#FFDE00"/>
<path d="M41.7221 25.4268L36.6339 21.9434L42.7945 21.6771L37.9275 25.6937L39.7148 19.4442L41.7221 25.4268Z" fill="#FFDE00"/>
<path d="M34.0686 32.484L30.7206 27.3057L36.506 29.4395L30.4654 31.2646L34.5277 26.1904L34.0686 32.484Z" fill="#FFDE00"/>
</svg>
