<svg width="88" height="66" viewBox="0 0 88 66" fill="none" xmlns="http://www.w3.org/2000/svg">
<path d="M0.574219 43.4202H87.241V65.0868H0.574219V43.4202Z" fill="black"/>
<path d="M0.574219 21.7537H87.241V43.4203H0.574219V21.7537Z" fill="white"/>
<path d="M0.574219 0.0869141H87.241V21.7536H0.574219V0.0869141Z" fill="#CE1126"/>
<path d="M43.9946 32.8469L51.4154 39.7369L50.8846 27.2244C50.8087 25.3285 49.1621 25.7619 47.9596 26.4444C46.7571 27.2244 45.3596 27.2244 43.9079 26.7152C42.4454 27.2244 41.0587 27.2244 39.8562 26.4444C38.6646 25.7619 37.0071 25.3285 36.9312 27.2244L36.4004 39.7369L43.9946 32.8469Z" fill="white" stroke="#C09300" stroke-width="0.140833" stroke-linejoin="round"/>
<path d="M37.7871 26.7913L37.2671 38.9571L36.4004 39.7371L36.9312 27.2246C37.1872 27.0283 37.4774 26.8814 37.7871 26.7913ZM38.8271 27.6579L38.3937 37.8413L37.5271 38.7296L38.0471 26.9754C38.2204 27.1488 38.7296 27.5713 38.8271 27.6579ZM39.7696 28.4379L39.4337 36.9313L38.7296 37.6138L39.1629 27.9288C39.3362 28.0913 39.6829 28.3404 39.7696 28.4379ZM40.7987 28.8713L40.4629 36.1079L39.7804 36.6604L40.1162 28.6113C40.2896 28.6871 40.6254 28.8713 40.7987 28.8713ZM41.7521 28.8713L41.5029 34.9054L40.7987 35.5879L41.0696 28.9471C41.2321 28.9471 41.6762 28.9471 41.7521 28.8713Z" fill="#C09300"/>
<path d="M50.0293 26.7913L50.5493 38.9571L51.416 39.7371L50.8852 27.2246C50.6293 27.0283 50.339 26.8814 50.0293 26.7913ZM48.9893 27.6579L49.4227 37.8413L50.2893 38.7296L49.7693 26.9754C49.596 27.1488 49.0868 27.5713 48.9893 27.6579ZM48.0468 28.4379L48.3827 36.9313L49.0868 37.6138L48.6535 27.9288C48.4802 28.0913 48.1335 28.3404 48.0468 28.4379ZM47.0177 28.8713L47.3535 36.1079L48.036 36.6604L47.7002 28.6113C47.5268 28.6871 47.191 28.8713 47.0177 28.8713ZM46.0643 28.8713L46.3135 34.9054L47.0177 35.5879L46.7468 28.9471C46.5843 28.9471 46.1402 28.9471 46.0643 28.8713Z" fill="#C09300"/>
<path d="M44.2548 34.2119L45.2948 38.9569L44.9482 39.3036L44.5907 39.0328L44.0057 34.8077L44.2548 39.0328L43.9082 39.4661L43.5723 39.0328L43.8215 34.8077L43.2257 39.0328L42.8681 39.3036L42.5215 38.9569L43.5615 34.2227H44.2548V34.2119Z" fill="#C09300" stroke="#C09300" stroke-width="0.119167"/>
<path d="M41.5789 32.1318L39.5098 39.466L42.3589 39.8993L43.5614 34.3852L41.5789 32.1318Z" fill="white" stroke="#C09300" stroke-width="0.13" stroke-linejoin="round"/>
<path d="M40.8965 34.6451L41.1456 35.241L42.489 33.9626" stroke="#C09300" stroke-width="0.140833" stroke-linejoin="round"/>
<path d="M41.8286 33.1284L42.1103 35.7609L42.9661 34.6343M42.6195 35.0676L43.0853 36.6926M43.2695 36.0968L42.327 37.5268M42.6195 38.9568L42.3161 37.5268M42.3161 37.5268L42.0561 36.0751L41.417 36.9309L41.1461 35.9451L40.2578 36.8551L40.702 38.5018L41.3303 37.4834L41.6661 38.5234L42.3161 37.5268Z" stroke="#C09300" stroke-width="0.140833" stroke-linejoin="round"/>
<path d="M40.1172 39.3035L40.6914 38.491L41.0597 39.7368L41.5797 38.8701L41.9155 39.9101" stroke="#C09300" stroke-width="0.140833" stroke-linejoin="round"/>
<path d="M46.2375 32.1321L48.3066 39.4663L45.4575 39.8996L44.255 34.3854L46.2375 32.1321Z" fill="white" stroke="#C09300" stroke-width="0.13" stroke-linejoin="round"/>
<path d="M46.9199 34.6454L46.6708 35.2412L45.3274 33.9629" stroke="#C09300" stroke-width="0.140833" stroke-linejoin="round"/>
<path d="M45.9878 33.1287L45.7061 35.7612L44.8503 34.6345M45.1969 35.0678L44.7311 36.6928M44.5469 36.097L45.4894 37.527M45.1969 38.957L45.5003 37.527M45.5003 37.527L45.7603 36.0753L46.3994 36.9312L46.6703 35.9453L47.5586 36.8553L47.1144 38.502L46.4861 37.4837L46.1503 38.5237L45.5003 37.527Z" stroke="#C09300" stroke-width="0.140833" stroke-linejoin="round"/>
<path d="M47.6992 39.3037L47.1251 38.4912L46.7567 39.737L46.2367 38.8704L45.9009 39.9104" stroke="#C09300" stroke-width="0.140833" stroke-linejoin="round"/>
<path d="M43.9077 42.7487C46.0744 42.7487 48.1327 42.5754 49.346 42.2395C49.8552 42.142 49.8552 41.882 49.8552 41.5354C50.3752 41.362 50.1152 40.7554 50.4727 40.7554C50.1044 40.8637 50.0394 40.1595 49.606 40.2462C49.606 39.6395 48.9885 39.5637 48.4794 39.737C47.4502 40.0729 45.6302 40.1595 43.9077 40.1595C42.1744 40.0729 40.376 40.0729 39.336 39.7262C38.8268 39.5637 38.2202 39.6395 38.2202 40.2462C37.7868 40.1595 37.711 40.8529 37.3535 40.7554C37.711 40.7554 37.4402 41.3729 37.9602 41.5354C37.9602 41.882 37.9602 42.142 38.4802 42.2395C39.6718 42.5754 41.7519 42.7487 43.9077 42.7487Z" fill="white" stroke="#C09300" stroke-width="0.26" stroke-linecap="round" stroke-linejoin="round"/>
<path d="M40.9722 39.4662C41.6655 39.5637 42.4455 39.6396 43.0522 39.5637C43.3989 39.5637 43.648 40.1596 42.9547 40.2462C42.3589 40.3221 41.4055 40.2462 40.8964 40.1596C40.2263 40.0423 39.5613 39.8977 38.903 39.7262C38.2964 39.4662 38.7297 38.9679 39.0764 39.0329C39.6948 39.231 40.3291 39.376 40.9722 39.4662ZM46.8439 39.4662C46.1505 39.5637 45.3705 39.6396 44.7855 39.5637C44.4172 39.5637 44.168 40.1596 44.8614 40.2462C45.468 40.3221 46.4105 40.2462 46.9197 40.1596C47.353 40.0729 48.3064 39.9104 48.9131 39.7262C49.5197 39.4662 49.0864 38.9679 48.7397 39.0329C48.1213 39.2311 47.487 39.3761 46.8439 39.4662Z" fill="white" stroke="#C09300" stroke-width="0.140833" stroke-linecap="round" stroke-linejoin="round"/>
<path d="M38.8162 39.1303C38.2962 39.0328 38.0579 39.6395 38.2204 39.9862C38.2962 39.8128 38.6537 39.8128 38.7295 39.6395C38.827 39.3795 38.6537 39.3795 38.827 39.1303H38.8162ZM40.8962 40.7228C40.8962 40.3762 41.232 40.4195 41.232 40.0728C41.232 39.9103 41.1454 39.6395 40.972 39.6395C40.8818 39.6447 40.7966 39.6829 40.7327 39.7468C40.6687 39.8107 40.6305 39.8959 40.6254 39.9862C40.5495 40.322 40.8962 40.3762 40.8962 40.7228ZM43.3554 39.737C43.8645 39.737 43.8104 40.4195 43.572 40.7662C43.572 40.517 43.1387 40.4195 43.1387 40.2462C43.1387 39.9862 43.5287 39.9862 43.3554 39.737ZM48.9887 39.1303C49.5195 39.0328 49.7687 39.6395 49.5954 39.9862C49.5195 39.8128 49.162 39.8128 49.0862 39.6395C48.9887 39.3795 49.162 39.3795 48.9887 39.1303ZM46.9412 40.712C46.9412 40.3653 46.5945 40.4087 46.5945 40.062C46.5945 39.8995 46.6812 39.6287 46.8545 39.6287C46.9448 39.6338 47.03 39.672 47.0939 39.736C47.1579 39.7999 47.196 39.8851 47.2012 39.9753C47.277 40.3112 46.9304 40.3653 46.9304 40.712H46.9412ZM44.4495 39.737C43.9404 39.737 43.9945 40.4195 44.2329 40.7662C44.2329 40.517 44.6662 40.4195 44.6662 40.2462C44.6662 39.9862 44.2762 39.9862 44.4495 39.737Z" fill="white" stroke="#C09300" stroke-width="0.140833" stroke-linecap="round" stroke-linejoin="round"/>
<path d="M39 39.3037C39.1733 39.3037 39.4333 39.3795 39.5092 39.477L39 39.3037ZM39.8558 39.5637C39.9425 39.5637 40.2892 39.6395 40.4517 39.737L39.8558 39.5637ZM42.9542 39.9104C42.7917 39.9104 42.445 39.9104 42.3583 39.9862L42.9542 39.8995V39.9104ZM42.0117 39.9104C41.9142 39.8129 41.5783 39.8129 41.405 39.9104H42.0117ZM48.815 39.3037C48.6312 39.306 48.4529 39.3667 48.3058 39.477L48.815 39.3037ZM47.97 39.5637C47.8617 39.5637 47.5367 39.6395 47.3633 39.737L47.97 39.5637ZM44.8608 39.9104C45.0233 39.9104 45.37 39.9104 45.4675 39.9862L44.8608 39.8995V39.9104ZM45.8033 39.9104C45.9008 39.8129 46.2367 39.8129 46.41 39.9104H45.8033Z" fill="white" stroke="#C09300" stroke-width="0.0975001" stroke-linecap="round" stroke-linejoin="round"/>
<path d="M38.8491 40.6686C38.795 40.6578 38.7625 40.6036 38.7841 40.5603C38.795 40.4845 38.8491 40.452 38.8925 40.4736C38.9358 40.4736 38.99 40.5386 38.99 40.5603L38.9466 40.6361L38.925 40.647C38.925 40.6686 38.8816 40.6686 38.8491 40.6686ZM44.8075 41.0911C44.7858 41.0911 44.7425 41.037 44.7425 41.0153C44.7425 40.972 44.8075 40.907 44.8508 40.907L44.9375 40.9503C44.97 40.9828 44.97 41.0478 44.9266 41.0803C44.905 41.102 44.84 41.102 44.8075 41.0803V41.0911ZM44.84 41.362C44.7966 41.3403 44.7858 41.3186 44.775 41.2753C44.775 41.2211 44.775 41.2103 44.8291 41.1778L44.8725 41.1561L44.9158 41.1778C44.9591 41.1995 44.9916 41.2211 44.9916 41.2645C44.9916 41.297 44.9591 41.3295 44.9158 41.3511C44.8833 41.3728 44.8725 41.3728 44.84 41.3511V41.362Z" fill="#C09300"/>
<path d="M39.3361 40.1704C39.2928 40.1704 39.2386 40.2137 39.2061 40.2354C39.1411 40.2462 39.0544 40.2896 38.9894 40.2354C38.9244 40.2246 38.8378 40.2354 38.8269 40.3221C38.8378 40.3979 38.9353 40.4304 39.0003 40.3871C39.0436 40.3329 39.1628 40.2896 39.1844 40.3871C39.1303 40.4737 39.1411 40.5712 39.0978 40.6471C39.0978 40.7012 39.0653 40.7446 39.0436 40.7879C38.9894 40.7879 38.9353 40.7879 38.8919 40.8204C38.8583 40.8204 38.8251 40.8282 38.795 40.8433C38.7649 40.8583 38.7388 40.8802 38.7186 40.9071C38.6753 40.9721 38.6319 41.0371 38.6211 41.1237C38.6319 41.1887 38.7294 41.2104 38.7944 41.2212L39.0111 41.2862L39.3578 41.3837C39.5311 41.4379 39.7044 41.4596 39.8778 41.5029L39.9319 41.5137C40.0078 41.5354 40.0403 41.4596 40.0403 41.4054L40.1486 41.0154C40.1703 40.9612 40.2028 40.8529 40.1053 40.8746C40.0511 40.9071 39.9969 40.9612 39.9319 40.9612C39.8344 40.9612 39.8886 41.0696 39.9319 41.1021C39.9319 41.1671 39.9103 41.2429 39.8778 41.2971C39.8128 41.3296 39.7478 41.2971 39.6828 41.2754C39.6286 41.2754 39.4986 41.2429 39.5528 41.1671L39.6069 40.9721C39.6394 40.9071 39.6394 40.8312 39.6611 40.7554C39.6178 40.6796 39.5528 40.7879 39.4986 40.7987C39.4553 40.8204 39.3253 40.8312 39.3903 40.9071C39.4553 40.9504 39.4119 41.0262 39.3903 41.0912C39.3903 41.1671 39.3036 41.1996 39.2386 41.1671C39.1736 41.1671 39.0761 41.1129 39.1303 41.0479L39.1844 40.8529L39.2603 40.6362C39.2603 40.5604 39.2928 40.5062 39.3253 40.4412C39.3253 40.3654 39.3794 40.3004 39.3794 40.2246C39.3794 40.1921 39.3578 40.1812 39.3361 40.1812V40.1704ZM38.9353 40.9612C38.9402 40.9584 38.9458 40.9569 38.9515 40.9569C38.9572 40.9569 38.9628 40.9584 38.9678 40.9612C38.9894 40.9829 38.9894 41.0046 38.9678 41.0262L38.9353 41.0479C38.8811 41.0479 38.8703 41.0371 38.8703 41.0154C38.8703 41.0046 38.8703 40.9937 38.9028 40.9829C38.9159 40.9734 38.9306 40.9661 38.9461 40.9612H38.9353ZM38.8269 41.5029C38.7728 41.4596 38.7836 41.4271 38.8594 41.3621C38.9028 41.3404 38.9136 41.3404 38.9569 41.3729C39.0219 41.4271 39.0219 41.4596 38.9569 41.5137C38.9353 41.5354 38.9244 41.5354 38.9028 41.5354C38.8703 41.5354 38.8594 41.5354 38.8269 41.5137V41.5029ZM39.1519 41.6112C39.1277 41.6037 39.1074 41.5871 39.0953 41.5648C39.0832 41.5426 39.0802 41.5165 39.0869 41.4921C39.1086 41.4487 39.1194 41.4379 39.1844 41.4379C39.2603 41.4379 39.2711 41.4487 39.2819 41.5137C39.2819 41.5571 39.2819 41.5679 39.2494 41.5896C39.2374 41.5991 39.2234 41.606 39.2084 41.6098C39.1935 41.6135 39.1779 41.614 39.1628 41.6112H39.1519ZM48.8153 41.6112C48.7936 41.6004 48.7828 41.5896 48.7828 41.5571C48.7828 41.5137 48.8044 41.4812 48.8694 41.4596C48.9344 41.4271 48.9778 41.4271 48.9994 41.4812C49.0319 41.5462 49.0319 41.5679 48.9886 41.6112C48.9669 41.6437 48.9561 41.6437 48.9019 41.6437C48.8478 41.6437 48.8369 41.6437 48.8153 41.6221V41.6112ZM39.6069 41.7412C39.5636 41.7412 39.5419 41.6979 39.5419 41.6546C39.5419 41.6221 39.5419 41.6112 39.5636 41.5896L39.6286 41.5679L39.6936 41.5787C39.7478 41.6221 39.7586 41.6654 39.7261 41.7087C39.6936 41.7521 39.6611 41.7521 39.5961 41.7412H39.6069ZM41.9686 41.8496L41.9469 41.8171C41.9469 41.7521 41.9469 41.6979 41.9686 41.6329C41.9794 41.5787 41.9686 41.5246 41.9903 41.4704L42.0336 41.1671C42.0336 41.1129 42.0336 41.0587 42.0553 41.0154C42.0661 40.9287 42.0553 40.8529 42.0769 40.7771C42.0769 40.7446 42.1094 40.6687 42.1419 40.7121C42.1853 40.7771 42.2394 40.8204 42.2936 40.8746C42.3369 40.9071 42.2936 40.9504 42.2611 40.9612C42.2178 40.9721 42.2069 41.0262 42.2069 41.0696L42.1853 41.1996C42.1853 41.2754 42.1853 41.3404 42.1636 41.4162L42.1528 41.6112L42.1311 41.7412C42.1311 41.7846 42.1311 41.8387 42.0878 41.8604C42.0553 41.8821 42.0011 41.8821 41.9794 41.8496H41.9686ZM45.1861 40.7879L45.0453 40.9179C44.9803 40.9721 45.0994 40.9937 45.1103 41.0371C45.1319 41.1021 45.1319 41.1671 45.1319 41.2321C45.1536 41.2971 45.1644 41.3512 45.1536 41.4162C45.1536 41.4921 45.0669 41.4704 45.0236 41.5137C44.9694 41.5354 44.9478 41.5896 44.9153 41.6221C44.8895 41.6764 44.8748 41.7353 44.8719 41.7954C44.8719 41.8496 44.8394 41.9037 44.8719 41.9471L44.8828 41.9687H44.9369L45.0994 41.9579C45.2294 41.9362 45.3703 41.9362 45.5003 41.9254L45.7386 41.9037C45.8036 41.9146 45.8361 41.8496 45.8361 41.7954C45.7928 41.7196 45.8253 41.6437 45.7928 41.5787C45.7711 41.4921 45.7819 41.4162 45.7711 41.3404C45.7711 41.2754 45.6953 41.2537 45.6628 41.2971C45.6194 41.3404 45.5544 41.3512 45.5328 41.3946C45.5003 41.4596 45.5978 41.4596 45.6194 41.5029L45.6303 41.6654C45.6411 41.7304 45.5761 41.7304 45.5219 41.7412C45.4678 41.7629 45.3919 41.7737 45.3594 41.7087C45.3378 41.6546 45.3378 41.6004 45.3378 41.5462C45.3378 41.4379 45.3053 41.3512 45.3053 41.2537C45.3053 41.1454 45.2728 41.0262 45.2728 40.9071C45.2728 40.8529 45.2619 40.7771 45.1861 40.7879ZM45.1211 41.6762H45.1536V41.7629L45.1211 41.7737C45.1069 41.7783 45.0924 41.7819 45.0778 41.7846C45.0705 41.7849 45.0633 41.7849 45.0561 41.7846C45.0344 41.7629 45.0344 41.7304 45.0669 41.6979L45.1211 41.6762ZM41.8711 40.6796C41.8386 40.6796 41.7844 40.7554 41.7411 40.7446C41.6436 40.7554 41.6544 40.8529 41.7303 40.8854V40.9721C41.7411 41.0587 41.6869 41.1346 41.6978 41.2212C41.6978 41.3079 41.6653 41.4054 41.6653 41.5029C41.6328 41.6004 41.6328 41.6979 41.6219 41.7954C41.6111 41.8821 41.5461 41.8496 41.4919 41.8279V41.7196C41.5028 41.6221 41.4378 41.6004 41.3619 41.5896C41.2861 41.5896 41.2536 41.5354 41.2753 41.4704C41.3078 41.4271 41.3836 41.4379 41.4378 41.4379C41.5461 41.4596 41.5353 41.3187 41.4811 41.2646C41.4378 41.1996 41.3511 41.1562 41.3294 41.0912C41.3294 41.0046 41.2753 40.9071 41.1994 40.8637C41.0803 40.8529 40.9828 40.9504 40.9503 41.0587C40.8961 41.0587 40.8419 41.0804 40.7986 41.1021C40.7228 41.1237 40.6144 41.2537 40.7228 41.3079C40.7769 41.3187 40.9611 41.3621 40.8744 41.4379C40.8311 41.5246 40.7444 41.5246 40.6686 41.5029C40.5928 41.5029 40.5061 41.4596 40.5061 41.3729C40.4953 41.2862 40.4953 41.1996 40.4628 41.1237C40.4411 41.0371 40.3436 41.0587 40.3328 41.1454C40.2569 41.1996 40.2678 41.2971 40.3219 41.3621C40.3544 41.4379 40.3219 41.5354 40.2894 41.6004C40.2678 41.7087 40.1594 41.7087 40.0836 41.7304C40.0511 41.7521 39.9103 41.7304 39.9644 41.8062C40.0457 41.8436 40.1365 41.855 40.2244 41.8387C40.3111 41.8387 40.3869 41.7629 40.4411 41.6871C40.4953 41.6329 40.5928 41.6654 40.6794 41.6654C40.7553 41.6654 40.8419 41.7196 40.9286 41.6762C40.9503 41.6221 41.0586 41.5137 41.0911 41.6221C41.0911 41.7196 41.1669 41.7629 41.2536 41.7521C41.3511 41.7521 41.3078 41.8171 41.3078 41.8821C41.3078 41.9796 41.3836 42.0337 41.4703 42.0771H41.5569C41.6328 42.0446 41.7194 42.0121 41.7519 41.9254C41.7844 41.8496 41.7844 41.7629 41.8061 41.6871C41.8278 41.5679 41.8494 41.4379 41.8494 41.3187C41.8819 41.2104 41.8711 41.0912 41.8928 40.9721L41.9253 40.7229C41.9253 40.6687 41.9036 40.6687 41.8711 40.6796ZM41.1453 41.1237C41.1561 41.1237 41.1669 41.1454 41.1669 41.1779C41.1669 41.2212 41.1886 41.2537 41.2211 41.2646V41.2971L41.1344 41.3187C41.0803 41.3187 41.0369 41.2971 41.0044 41.2646L40.9828 41.2429L41.0153 41.2212L41.0694 41.1671C41.1019 41.1346 41.1236 41.1237 41.1453 41.1237ZM48.2953 40.2679C48.2329 40.2724 48.1712 40.2833 48.1111 40.3004C48.0028 40.3004 47.9486 40.4087 48.0569 40.4737C48.1219 40.6362 48.2194 40.4304 48.3278 40.4521C48.4794 40.4737 48.4903 40.6471 48.5228 40.7771C48.5228 40.8962 48.5661 41.0154 48.5986 41.1346C48.7069 41.2537 48.5228 41.3296 48.4469 41.2429C48.3819 41.1671 48.2303 41.0804 48.1544 41.1779C48.0569 41.2212 48.0461 41.3512 47.9703 41.3946C47.8403 41.4271 47.8294 41.2646 47.7536 41.1996C47.6886 41.1021 47.5694 41.0912 47.4719 41.0696C47.4286 40.9721 47.4503 40.8096 47.3636 40.7446C47.2769 40.7771 47.1253 40.9287 47.2553 41.0046C47.3636 41.1129 47.2011 41.1562 47.1469 41.2212C47.0603 41.3187 47.0386 41.4379 47.0386 41.5462C46.8978 41.6221 46.8761 41.4596 46.8544 41.3621C46.8544 41.2429 46.7461 41.2754 46.6703 41.3187C46.5619 41.3621 46.5186 41.4596 46.4536 41.5354V41.7521C46.4753 41.8496 46.5836 41.8062 46.6486 41.7954C46.7569 41.7521 46.8003 41.8712 46.7136 41.9362C46.6486 42.0012 46.4753 41.9687 46.4969 42.0879H46.6703C46.7786 42.0554 46.9086 41.9687 46.9194 41.8387C46.9411 41.7304 47.1036 41.7412 47.1903 41.7196C47.2986 41.6871 47.4394 41.6762 47.4719 41.8279C47.5478 41.9037 47.7103 41.9904 47.7969 41.8821C47.8382 41.8559 47.8713 41.8187 47.8923 41.7746C47.9134 41.7306 47.9216 41.6814 47.9161 41.6329C47.9053 41.5462 48.0569 41.5462 48.1003 41.6004C48.1544 41.6871 48.3278 41.6654 48.4144 41.6004C48.5011 41.5462 48.5228 41.4271 48.6528 41.4271L49.2378 41.2646C49.3894 41.2321 49.2161 41.1346 49.1728 41.0696C49.0644 41.0154 48.9561 41.2537 48.8261 41.1346C48.7178 41.0587 48.7286 40.9179 48.6961 40.7987C48.6636 40.6471 48.6744 40.4737 48.5661 40.3654C48.5011 40.2896 48.3928 40.2679 48.2953 40.2679ZM47.5586 41.2971C47.5694 41.2971 47.5911 41.2971 47.6128 41.3187C47.6561 41.3404 47.6886 41.3837 47.6886 41.4271C47.6886 41.4487 47.6886 41.4487 47.6561 41.4596L47.6019 41.4812C47.5803 41.4812 47.5261 41.4487 47.5261 41.4271V41.3837C47.5044 41.3404 47.5044 41.3404 47.5261 41.3187L47.5586 41.2971ZM48.2628 41.3404C48.3061 41.3404 48.3278 41.3404 48.3494 41.3729C48.3603 41.4162 48.3494 41.4379 48.3061 41.4596L48.2519 41.4812L48.2086 41.4487C48.1869 41.4379 48.1761 41.4271 48.1761 41.4054C48.1761 41.3729 48.2194 41.3404 48.2628 41.3296V41.3404ZM47.2878 41.3404C47.3094 41.3404 47.3203 41.3404 47.3311 41.3621C47.3528 41.3837 47.3636 41.3946 47.3636 41.4271V41.4921C47.3636 41.5246 47.3636 41.5137 47.2986 41.5137C47.2336 41.5137 47.2228 41.5137 47.2228 41.4487C47.2228 41.4054 47.2228 41.3946 47.2553 41.3729C47.2661 41.3512 47.2878 41.3512 47.2986 41.3512L47.2878 41.3404ZM46.7028 41.5029C46.713 41.506 46.7223 41.5116 46.7299 41.5191C46.7374 41.5267 46.743 41.536 46.7461 41.5462C46.7461 41.5787 46.7461 41.6004 46.7244 41.6112C46.6919 41.6221 46.6378 41.6329 46.6161 41.6112C46.6158 41.6076 46.6158 41.604 46.6161 41.6004C46.5944 41.5896 46.5944 41.5787 46.6161 41.5679V41.5571L46.6378 41.5246C46.6444 41.514 46.6546 41.5061 46.6664 41.5022C46.6782 41.4982 46.6911 41.4985 46.7028 41.5029ZM47.6994 41.6329L47.7536 41.6437V41.7087H47.6236L47.6128 41.6871C47.6128 41.6654 47.6128 41.6546 47.6344 41.6437L47.6994 41.6329ZM45.8469 42.1529C45.8361 42.1529 45.8144 42.1421 45.8361 42.1312C45.8469 42.0987 45.8903 42.0879 45.9228 42.0662C45.9818 42.0437 46.034 42.0064 46.0744 41.9579C46.0744 41.9146 46.1178 41.8929 46.1178 41.8496L46.1069 41.6979C46.0923 41.6524 46.0615 41.6138 46.0203 41.5896C45.9878 41.5787 45.9444 41.5679 45.9336 41.5246C45.9336 41.4921 45.9661 41.4596 45.9769 41.4271L46.0419 41.2971C46.0744 41.2646 46.1178 41.2971 46.1286 41.3187L46.1828 41.4271C46.2153 41.4596 46.2369 41.4921 46.2478 41.5354C46.2694 41.5787 46.2911 41.6112 46.2911 41.6437L46.3128 41.7846C46.3128 41.8387 46.3128 41.9037 46.2911 41.9579L46.2261 42.0446C46.1936 42.0771 46.1611 42.1096 46.1178 42.1204C46.0853 42.1312 46.0636 42.1637 46.0203 42.1637H45.8578L45.8469 42.1529ZM45.0994 42.1962C45.0778 42.1746 45.0669 42.1637 45.0669 42.1312C45.0669 42.0987 45.0669 42.0987 45.0994 42.0662C45.1428 42.0229 45.1644 42.0229 45.2511 42.0662C45.3269 42.1096 45.3594 42.1096 45.3594 42.0771C45.3703 42.0554 45.4136 42.0229 45.4678 42.0229C45.4878 42.0237 45.5069 42.0313 45.5219 42.0446C45.5436 42.0662 45.5544 42.0771 45.5544 42.1204C45.5544 42.1746 45.5544 42.1746 45.5219 42.2071C45.4894 42.2287 45.4894 42.2287 45.4461 42.2287C45.4268 42.2277 45.4083 42.221 45.3929 42.2094C45.3775 42.1978 45.3658 42.1819 45.3594 42.1637C45.3594 42.1421 45.3594 42.1312 45.3378 42.1529L45.3161 42.1637C45.2944 42.1637 45.2511 42.1962 45.2294 42.2179L45.1753 42.2287C45.1319 42.2287 45.1319 42.2287 45.0994 42.1962ZM42.9544 41.2321C42.8786 41.2321 42.8028 41.2971 42.7919 41.3729C42.8136 41.4487 42.8786 41.5354 42.8353 41.6112C42.8678 41.7196 42.7486 41.7629 42.6728 41.7087C42.6294 41.6004 42.6078 41.4921 42.5319 41.3837C42.4453 41.3621 42.4128 41.5029 42.3478 41.5571C42.3803 41.6329 42.4669 41.7087 42.4778 41.8062C42.4994 41.9146 42.4344 42.0229 42.3586 42.0662C42.2828 42.1421 42.1744 42.1204 42.0878 42.1312C41.9794 42.1962 42.1636 42.2179 42.2178 42.2179C42.3261 42.2287 42.4453 42.2179 42.5428 42.1312C42.6186 42.0987 42.6078 41.9471 42.7053 41.9362L43.2253 41.9687C43.3119 41.9904 43.4528 41.9579 43.5178 42.0229C43.5178 42.1312 43.6261 42.2179 43.7236 42.2612C43.7778 42.2829 43.8319 42.2071 43.8861 42.1962C43.9944 42.1637 43.9619 42.0337 44.0269 41.9796H44.5686C44.5903 41.9796 44.6011 41.9254 44.6336 41.9037L44.6119 41.6979C44.5794 41.6112 44.6119 41.5029 44.5578 41.4271C44.4603 41.4054 44.3844 41.4812 44.2978 41.4921C44.1894 41.5354 44.1136 41.6329 44.1028 41.7412C44.0486 41.8387 43.9511 41.7196 43.9944 41.6329L43.9836 41.5246C43.9294 41.4704 43.8319 41.4921 43.7561 41.4812L43.4311 41.4596C43.3228 41.4596 43.2253 41.4704 43.1386 41.4487C43.0303 41.4487 43.0303 41.3404 43.0303 41.2537C43.0086 41.2373 42.9815 41.2295 42.9544 41.2321ZM43.1711 41.6329L43.2794 41.6437H43.4203C43.5286 41.6654 43.6369 41.6654 43.7453 41.6654C43.7669 41.6654 43.7886 41.6871 43.8103 41.7087V41.9254C43.8103 41.9579 43.8103 42.0012 43.7886 42.0121C43.7829 42.0207 43.7756 42.0281 43.7669 42.0337C43.7511 42.0309 43.736 42.0246 43.7229 42.0152C43.7098 42.0059 43.6989 41.9937 43.6911 41.9796V41.8279C43.6696 41.8097 43.6432 41.7984 43.6153 41.7954L43.3336 41.7846L43.1169 41.7737C43.0844 41.7629 43.0411 41.7737 43.0194 41.7304C42.9978 41.7087 43.0303 41.6654 43.0628 41.6546C43.0968 41.6393 43.1338 41.6319 43.1711 41.6329ZM44.3953 41.6654C44.4061 41.6654 44.4169 41.6654 44.4169 41.6979L44.4386 41.7521C44.4386 41.7629 44.4386 41.7737 44.4169 41.7737C44.3628 41.7954 44.3086 41.7954 44.2869 41.7737C44.2869 41.7629 44.2869 41.7196 44.3086 41.7087L44.3953 41.6654Z" fill="#C09300"/>
<path d="M43.9073 35.5335C47.439 32.8252 47.1357 28.8385 47.1357 28.8385L46.8648 28.8602C46.1173 28.8602 44.3515 28.4268 43.9398 27.896C43.5065 28.3835 41.6865 28.871 40.9498 28.871L40.679 28.8385C40.679 28.8385 40.3648 32.8143 43.9073 35.5335Z" fill="white" stroke="#C09300" stroke-width="0.119167"/>
<path d="M46.8543 29.1202H46.7676C46.0959 29.1202 44.5359 28.7844 43.9293 28.2644C43.3009 28.7411 41.7084 29.1311 41.0476 29.1311C41.0185 29.1299 40.9895 29.1263 40.9609 29.1202C40.9669 29.8049 41.0615 30.4858 41.2426 31.1461C41.6771 32.7368 42.6114 34.1458 43.9076 35.1652C45.2046 34.142 46.1388 32.7293 46.5726 31.1352C46.7528 30.4785 46.8474 29.8012 46.8543 29.1202Z" fill="white" stroke="#C09300" stroke-width="0.0975001"/>
<path d="M42.7593 28.7953C42.1774 28.9848 41.5724 29.0941 40.9609 29.1203L40.9718 29.5644C41.0088 30.0958 41.0995 30.6221 41.2426 31.1353C41.5338 32.2007 42.0511 33.1909 42.7593 34.0386V28.7953ZM44.9909 28.7953V34.1253C45.7332 33.2581 46.2734 32.2368 46.5726 31.1353C46.7156 30.6221 46.8063 30.0958 46.8434 29.5644L46.8543 29.1311H46.7676C46.3559 29.1311 45.6409 29.0011 44.9909 28.7844V28.7953Z" fill="#C09300"/>
<path d="M45.2403 27.4953C45.3161 27.5061 45.1428 27.1161 45.1428 27.1161C45.3378 27.3111 46.0528 27.3653 46.0528 27.3653C45.6195 27.1703 45.1861 25.7294 45.2403 24.5703C45.2836 23.4219 45.0778 22.9669 44.9153 22.7936C44.6986 22.5769 43.9945 22.3819 43.5395 22.3603C43.2686 22.3494 43.3228 22.5553 43.3228 22.5553C42.8353 22.4361 42.3478 22.3819 42.1311 22.5336C41.9361 22.6636 41.8928 23.3461 42.0445 23.2269C42.402 22.9344 42.7161 23.2053 42.9328 23.5194C43.1278 23.7903 43.117 24.5703 42.8353 25.4911C42.5859 26.1872 42.2195 26.8357 41.752 27.4086C42.1853 27.4086 42.792 27.0294 42.792 27.0294L42.6511 27.6253C43.1061 27.4086 43.4636 27.0728 43.4636 27.0728L43.897 27.5278C44.0378 27.3328 44.3303 27.0728 44.3303 27.0728C44.3303 27.0728 44.6878 27.4519 45.2403 27.5061V27.4953Z" fill="white" stroke="#C09300" stroke-width="0.13"/>
<path d="M43.4843 24.7436C43.4843 24.7436 43.246 26.5203 42.791 27.0186M43.8743 24.6895C43.8743 24.6895 43.766 26.4986 43.4627 27.0728M44.2102 24.7653C44.2102 24.7653 44.2102 26.737 44.3185 27.0728M44.6435 24.8628C44.6435 24.8628 44.7302 26.5203 45.1418 27.1161" stroke="#C09300" stroke-width="0.140833"/>
<path d="M43.0416 23.8769C43.0319 23.7513 42.9949 23.6293 42.9333 23.5194C42.7166 23.1944 42.4024 22.9344 42.0449 23.2269C42.0449 23.2269 42.1641 22.8478 42.4349 22.8369C42.6299 22.8261 43.0958 22.9886 43.5074 23.6819C43.5074 23.6819 43.2041 23.6169 43.1283 23.6819C42.9983 23.7903 43.0524 23.8769 43.0524 23.8769H43.0416Z" fill="#C09300" stroke="#C09300" stroke-width="0.0325"/>
<path d="M42.002 22.7611C42.0345 22.6528 42.0778 22.5661 42.1428 22.5336C42.3595 22.3819 42.8361 22.4253 43.3236 22.5553C43.3236 22.5553 43.2803 22.3494 43.5403 22.3603C43.9953 22.3819 44.6886 22.5769 44.9053 22.7936C44.9747 22.8698 45.0297 22.9579 45.0678 23.0536C44.9595 22.9019 44.6561 22.9128 44.5803 22.9236C44.472 22.9344 44.3961 22.9236 44.2445 22.9669C44.1686 22.9886 44.0603 23.0103 43.9953 23.0536C43.952 23.0969 43.9086 23.2269 43.8436 23.2269C43.7353 23.2269 43.7353 23.2053 43.7028 23.1728C43.6703 23.1186 43.6486 23.0536 43.6053 23.0644C43.497 23.0753 43.302 22.9886 43.0636 22.7936C42.8145 22.5986 42.717 22.5553 42.4136 22.5769C42.0886 22.5986 42.002 22.7828 42.002 22.7828V22.7611Z" fill="#C09300" stroke="#C09300" stroke-width="0.0325"/>
<path d="M43.7784 23.0427C43.8502 23.0427 43.9084 22.9845 43.9084 22.9127C43.9084 22.8409 43.8502 22.7827 43.7784 22.7827C43.7066 22.7827 43.6484 22.8409 43.6484 22.9127C43.6484 22.9845 43.7066 23.0427 43.7784 23.0427Z" fill="white"/>
</svg>
