<svg width="196" height="49" viewBox="0 0 196 49" fill="none" xmlns="http://www.w3.org/2000/svg">
<g clip-path="url(#clip0_81_769)">
<path d="M0.685547 0.868408H64.5201V48.7443H0.685547V0.868408Z" fill="#012169"/>
<path d="M8.16616 0.868408L32.5031 18.9216L56.7403 0.868408H64.5201V7.05238L40.5821 24.9061L64.5201 42.6601V48.7443H56.5408L32.6028 30.8906L8.76461 48.7443H0.685547V42.7598L24.5238 25.0059L0.685547 7.25186V0.868408H8.16616Z" fill="white"/>
<path d="M42.9759 28.8958L64.5201 44.7547V48.7443L37.4902 28.8958H42.9759ZM24.6235 30.8906L25.222 34.3816L6.07159 48.7443H0.685547L24.6235 30.8906ZM64.5201 0.868408V1.16763L39.6845 19.919L39.884 15.5304L59.533 0.868408H64.5201ZM0.685547 0.868408L24.5238 18.4229H18.5393L0.685547 5.05755V0.868408Z" fill="#C8102E"/>
<path d="M24.7232 0.868408V48.7443H40.6819V0.868408H24.7232ZM0.685547 16.827V32.7857H64.5201V16.827H0.685547Z" fill="white"/>
<path d="M0.685547 20.1185V29.6937H64.5201V20.1185H0.685547ZM27.915 0.868408V48.7443H37.4902V0.868408H27.915Z" fill="#C8102E"/>
</g>
<g clip-path="url(#clip1_81_769)">
<path d="M80.9902 0.868408H114.868V48.7443H80.9902V0.868408Z" fill="white"/>
<path d="M64.0566 0.868408H80.9909V48.7443H64.0566V0.868408ZM114.869 0.868408H131.803V48.7443H114.878L114.869 0.868408ZM86.0683 24.0022L84.7405 24.451L90.8653 29.8277C91.3328 31.2023 90.7063 31.6044 90.3042 32.3337L96.9433 31.4922L96.7843 38.178L98.1682 38.1406L97.8597 31.5015L104.517 32.2963C104.106 31.4267 103.741 30.9685 104.115 29.5846L110.231 24.4884L109.165 24.0957C108.286 23.4225 109.539 20.851 109.726 19.224C109.726 19.224 106.163 20.4489 105.929 19.8037L105.013 18.0551L101.768 21.6271C101.413 21.7113 101.263 21.571 101.179 21.2718L102.675 13.8099L100.3 15.147C100.104 15.2405 99.9075 15.1657 99.7766 14.932L97.4856 10.3501L95.1292 15.1096C94.9516 15.2779 94.7739 15.2966 94.6243 15.1844L92.3614 13.9127L93.7266 21.3092C93.6144 21.6084 93.3526 21.6832 93.0534 21.5243L89.9396 17.999C89.5375 18.6536 89.2663 19.7102 88.724 19.9533C88.191 20.1777 86.3863 19.5045 85.18 19.2427C85.5915 20.7294 86.8819 23.198 86.0683 24.0116V24.0022Z" fill="#D52B1E"/>
</g>
<g clip-path="url(#clip2_81_769)">
<path fill-rule="evenodd" clip-rule="evenodd" d="M131.35 0.868164H222.314V4.55237H131.35V0.868164ZM131.35 8.23657H222.314V11.9208H131.35V8.23657ZM131.35 15.5956H222.314V19.2892H131.35V15.5956ZM131.35 22.964H222.314V26.6482H131.35V22.964ZM131.35 30.3324H222.314V34.0166H131.35V30.3324ZM131.35 37.6915H222.314V41.3757H131.35V37.6915ZM131.35 45.0599H222.314V48.7441H131.35V45.0599Z" fill="#BD3D44"/>
<path fill-rule="evenodd" clip-rule="evenodd" d="M131.35 4.55225H222.314V8.23645H131.35V4.55225ZM131.35 11.9206H222.314V15.5955H131.35V11.9206ZM131.35 19.2797H222.314V22.9639H131.35V19.2797ZM131.35 26.6481H222.314V30.3323H131.35V26.6481ZM131.35 34.0165H222.314V37.7007H131.35V34.0165ZM131.35 41.3756H222.314V45.0598H131.35V41.3756Z" fill="white"/>
<path fill-rule="evenodd" clip-rule="evenodd" d="M131.35 0.868164H167.733V26.6482H131.35V0.868164Z" fill="#192F5D"/>
<path fill-rule="evenodd" clip-rule="evenodd" d="M134.379 1.97168L134.716 2.99091H135.782L134.922 3.61741L135.249 4.646L134.379 4.01015L133.519 4.63665L133.846 3.61741L132.977 2.99091H134.061L134.379 1.97168ZM140.448 1.97168L140.775 2.99091H141.85L140.981 3.61741L141.308 4.646L140.448 4.01015L139.578 4.63665L139.905 3.61741L139.045 2.99091H140.111L140.448 1.97168ZM146.507 1.97168L146.844 2.99091H147.9L147.04 3.61741L147.367 4.646L146.498 4.01015L145.638 4.63665L145.965 3.61741L145.095 2.99091H146.17L146.507 1.97168ZM152.576 1.97168L152.903 2.99091H153.978L153.109 3.61741L153.445 4.646L152.576 4.01015L151.706 4.63665L152.043 3.61741L151.173 2.99091H152.239L152.576 1.97168ZM158.635 1.97168L158.972 2.99091H160.038L159.177 3.61741L159.505 4.646L158.635 4.01015L157.775 4.63665L158.102 3.61741L157.242 2.99091H158.308L158.635 1.97168ZM164.704 1.97168L165.031 2.99091H166.106L165.237 3.61741L165.573 4.646L164.704 4.01015L163.834 4.63665L164.171 3.61741L163.301 2.99091H164.376L164.704 1.97168ZM137.418 4.55249L137.745 5.57172H138.821L137.951 6.19823L138.269 7.21746L137.428 6.59096L136.558 7.21746L136.866 6.19823L136.025 5.57172H137.091L137.418 4.55249ZM143.477 4.55249L143.814 5.57172H144.88L144.01 6.19823L144.347 7.21746L143.477 6.59096L142.608 7.21746L142.944 6.19823L142.075 5.57172H143.15L143.477 4.55249ZM149.546 4.55249L149.873 5.57172H150.949L150.079 6.19823L150.406 7.21746L149.546 6.59096L148.677 7.21746L149.004 6.19823L148.144 5.57172H149.209L149.546 4.55249ZM155.605 4.55249L155.942 5.57172H157.008L156.138 6.19823L156.475 7.21746L155.605 6.59096L154.745 7.21746L155.072 6.19823L154.203 5.57172H155.287L155.605 4.55249ZM161.674 4.55249L162.001 5.57172H163.077L162.207 6.19823L162.534 7.21746L161.674 6.59096L160.804 7.21746L161.132 6.19823L160.271 5.57172H161.337L161.674 4.55249ZM134.379 7.12395L134.716 8.16189H135.782L134.922 8.78839L135.249 9.80762L134.379 9.17177L133.519 9.80762L133.846 8.77904L132.977 8.15254H134.061L134.379 7.12395ZM140.448 7.12395L140.775 8.15254H141.85L140.981 8.77904L141.308 9.79827L140.448 9.16242L139.578 9.79827L139.905 8.76969L139.045 8.14319H140.111L140.448 7.12395ZM146.507 7.12395L146.844 8.15254H147.9L147.04 8.77904L147.367 9.79827L146.498 9.16242L145.638 9.79827L145.965 8.76969L145.095 8.14319H146.17L146.507 7.12395ZM152.576 7.12395L152.903 8.15254H153.978L153.109 8.77904L153.445 9.79827L152.576 9.16242L151.706 9.79827L152.043 8.76969L151.173 8.14319H152.239L152.576 7.12395ZM158.635 7.12395L158.972 8.15254H160.038L159.177 8.77904L159.505 9.79827L158.635 9.16242L157.775 9.79827L158.102 8.76969L157.242 8.14319H158.308L158.635 7.12395ZM164.704 7.12395L165.031 8.15254H166.106L165.237 8.77904L165.573 9.79827L164.704 9.16242L163.834 9.79827L164.171 8.76969L163.301 8.14319H164.376L164.704 7.12395ZM137.418 9.70476L137.745 10.724H138.821L137.951 11.3505L138.278 12.3791L137.418 11.7432L136.549 12.3697L136.876 11.3505L136.016 10.724H137.082L137.418 9.70476ZM143.477 9.70476L143.814 10.724H144.88L144.01 11.3505L144.347 12.3791L143.477 11.7432L142.608 12.3697L142.944 11.3505L142.075 10.724H143.15L143.477 9.70476ZM149.546 9.70476L149.873 10.724H150.949L150.079 11.3505L150.406 12.3791L149.546 11.7432L148.677 12.3697L149.004 11.3505L148.144 10.724H149.209L149.546 9.70476ZM155.605 9.70476L155.942 10.724H157.008L156.148 11.3505L156.475 12.3791L155.605 11.7432L154.745 12.3697L155.072 11.3505L154.203 10.724H155.287L155.605 9.70476ZM161.674 9.70476L162.001 10.724H163.077L162.207 11.3505L162.534 12.3791L161.674 11.7432L160.804 12.3697L161.132 11.3505L160.271 10.724H161.337L161.674 9.70476ZM134.379 12.2856L134.716 13.3048H135.782L134.922 13.9313L135.249 14.9599L134.379 14.324L133.519 14.9505L133.846 13.9313L132.977 13.3048H134.061L134.379 12.2856ZM140.448 12.2856L140.775 13.3048H141.85L140.981 13.9313L141.308 14.9505L140.448 14.324L139.578 14.9505L139.905 13.9313L139.045 13.3048H140.111L140.448 12.2856ZM146.507 12.2856L146.844 13.3048H147.9L147.04 13.9313L147.367 14.9599L146.498 14.324L145.638 14.9505L145.965 13.9313L145.095 13.3048H146.17L146.507 12.2856ZM152.576 12.2856L152.903 13.3048H153.978L153.109 13.9313L153.445 14.9599L152.576 14.324L151.706 14.9505L152.043 13.9313L151.173 13.3048H152.239L152.576 12.2856ZM158.635 12.2856L158.972 13.3048H160.038L159.177 13.9313L159.505 14.9599L158.635 14.324L157.775 14.9505L158.102 13.9313L157.242 13.3048H158.308L158.635 12.2856ZM164.704 12.2856L165.031 13.3048H166.106L165.237 13.9313L165.573 14.9599L164.704 14.324L163.834 14.9505L164.171 13.9313L163.301 13.3048H164.376L164.704 12.2856ZM137.418 14.8664L137.745 15.8856H138.821L137.951 16.5121L138.278 17.5314L137.418 16.8955L136.549 17.5314L136.876 16.5028L136.016 15.8763H137.082L137.418 14.8664ZM143.477 14.8664L143.814 15.8856H144.88L144.01 16.5121L144.347 17.5314L143.477 16.8955L142.608 17.5314L142.944 16.5028L142.075 15.8763H143.15L143.477 14.8664ZM149.546 14.8664L149.873 15.8856H150.949L150.079 16.5121L150.406 17.5314L149.546 16.8955L148.677 17.5314L149.004 16.5028L148.144 15.8763H149.209L149.546 14.8664ZM155.605 14.8664L155.942 15.8856H157.008L156.148 16.5121L156.475 17.5314L155.605 16.8955L154.745 17.5314L155.072 16.5028L154.203 15.8763H155.287L155.605 14.8664ZM161.674 14.8664L162.001 15.8856H163.077L162.207 16.5121L162.534 17.5314L161.674 16.8955L160.804 17.5314L161.132 16.5028L160.271 15.8763H161.337L161.674 14.8664ZM134.379 17.4378L134.716 18.4664H135.782L134.922 19.0929L135.249 20.1028L134.379 19.4763L133.519 20.1028L133.846 19.0836L132.977 18.4571H134.061L134.379 17.4378ZM140.448 17.4378L140.775 18.4664H141.85L140.981 19.0929L141.317 20.1028L140.448 19.4763L139.578 20.1028L139.915 19.0836L139.045 18.4571H140.111L140.448 17.4378ZM146.507 17.4378L146.844 18.4664H147.9L147.04 19.0929L147.367 20.1028L146.498 19.4763L145.638 20.1028L145.965 19.0836L145.095 18.4571H146.17L146.507 17.4378ZM152.576 17.4378L152.903 18.4664H153.978L153.109 19.0929L153.445 20.1028L152.576 19.4763L151.706 20.1028L152.043 19.0836L151.173 18.4571H152.239L152.576 17.4378ZM158.635 17.4378L158.972 18.4664H160.038L159.177 19.0929L159.505 20.1028L158.635 19.4763L157.775 20.1028L158.102 19.0836L157.242 18.4571H158.308L158.635 17.4378ZM164.704 17.4378L165.031 18.4664H166.106L165.237 19.0929L165.573 20.1028L164.704 19.4763L163.834 20.1028L164.171 19.0836L163.301 18.4571H164.376L164.704 17.4378ZM137.418 20.0187L137.745 21.0379H138.821L137.951 21.6644L138.278 22.693L137.418 22.0571L136.549 22.6836L136.876 21.6644L136.016 21.0379H137.082L137.418 20.0187ZM143.477 20.0187L143.814 21.0379H144.88L144.01 21.6644L144.347 22.693L143.477 22.0571L142.608 22.6836L142.944 21.6644L142.075 21.0379H143.15L143.477 20.0187ZM149.546 20.0187L149.873 21.0379H150.949L150.079 21.6644L150.406 22.693L149.546 22.0571L148.677 22.6836L149.004 21.6644L148.144 21.0379H149.209L149.546 20.0187ZM155.605 20.0187L155.942 21.0379H157.008L156.148 21.6644L156.475 22.693L155.605 22.0571L154.745 22.6836L155.072 21.6644L154.203 21.0379H155.287L155.605 20.0187ZM161.674 20.0187L162.001 21.0379H163.077L162.207 21.6644L162.534 22.693L161.674 22.0571L160.804 22.6836L161.132 21.6644L160.271 21.0379H161.337L161.674 20.0187ZM134.379 22.5995L134.716 23.6187H135.782L134.922 24.2452L135.249 25.2644L134.379 24.6379L133.519 25.2644L133.846 24.2359L132.977 23.6094H134.061L134.379 22.5995ZM140.448 22.5995L140.775 23.6187H141.85L140.981 24.2452L141.317 25.2644L140.448 24.6379L139.578 25.2644L139.915 24.2359L139.045 23.6094H140.111L140.448 22.5995ZM146.507 22.5995L146.844 23.6187H147.9L147.059 24.2452L147.386 25.2644L146.516 24.6379L145.656 25.2644L145.983 24.2359L145.114 23.6094H146.189L146.507 22.5995ZM152.576 22.5995L152.903 23.6187H153.978L153.109 24.2452L153.445 25.2644L152.576 24.6379L151.706 25.2644L152.043 24.2359L151.173 23.6094H152.239L152.576 22.5995ZM158.635 22.5995L158.972 23.6187H160.038L159.177 24.2452L159.505 25.2644L158.635 24.6379L157.775 25.2644L158.102 24.2359L157.242 23.6094H158.308L158.635 22.5995ZM164.704 22.5995L165.031 23.6187H166.106L165.237 24.2452L165.573 25.2644L164.704 24.6379L163.834 25.2644L164.171 24.2359L163.301 23.6094H164.376L164.704 22.5995Z" fill="white"/>
</g>
<defs>
<clipPath id="clip0_81_769">
<rect width="63.8346" height="47.8759" fill="white" transform="translate(0.685547 0.868408)"/>
</clipPath>
<clipPath id="clip1_81_769">
<rect width="63.8346" height="47.8759" fill="white" transform="translate(66.0156 0.868408)"/>
</clipPath>
<clipPath id="clip2_81_769">
<rect width="63.8346" height="47.8759" fill="white" transform="translate(131.348 0.868408)"/>
</clipPath>
</defs>
</svg>
