<svg width="88" height="66" viewBox="0 0 88 66" fill="none" xmlns="http://www.w3.org/2000/svg">
<path d="M0.849609 0.876709H87.5162V22.5434H0.849609V0.876709Z" fill="#FF9933"/>
<path d="M0.849609 22.5435H87.5162V44.2101H0.849609V22.5435Z" fill="white"/>
<path d="M0.849609 44.21H87.5162V65.8766H0.849609V44.21Z" fill="#128807"/>
<path d="M44.1842 42.0438C48.9707 42.0438 52.8509 38.1636 52.8509 33.3771C52.8509 28.5906 48.9707 24.7104 44.1842 24.7104C39.3978 24.7104 35.5176 28.5906 35.5176 33.3771C35.5176 38.1636 39.3978 42.0438 44.1842 42.0438Z" fill="#000088"/>
<path d="M44.1829 40.9604C48.3711 40.9604 51.7663 37.5652 51.7663 33.377C51.7663 29.1889 48.3711 25.7937 44.1829 25.7937C39.9948 25.7937 36.5996 29.1889 36.5996 33.377C36.5996 37.5652 39.9948 40.9604 44.1829 40.9604Z" fill="white"/>
<path d="M44.1846 34.8937C45.0223 34.8937 45.7013 34.2146 45.7013 33.377C45.7013 32.5394 45.0223 31.8604 44.1846 31.8604C43.347 31.8604 42.668 32.5394 42.668 33.377C42.668 34.2146 43.347 34.8937 44.1846 34.8937Z" fill="#000088"/>
<path d="M51.6501 34.7564C51.8636 34.7845 52.0595 34.6342 52.0877 34.4206C52.1158 34.2071 51.9654 34.0111 51.7519 33.983C51.5383 33.9549 51.3424 34.1052 51.3143 34.3188C51.2862 34.5323 51.4365 34.7282 51.6501 34.7564Z" fill="#000088"/>
<path d="M44.1819 40.9603L44.4419 36.4103L44.1819 34.2437L43.9219 36.4103L44.1819 40.9603Z" fill="#000088"/>
<path d="M51.0384 36.6421C51.2374 36.7245 51.4655 36.63 51.5479 36.431C51.6304 36.232 51.5359 36.0039 51.3369 35.9215C51.1379 35.839 50.9097 35.9335 50.8273 36.1325C50.7449 36.3315 50.8394 36.5597 51.0384 36.6421Z" fill="#000088"/>
<path d="M42.2198 40.7021L43.6485 36.3744L43.9582 34.2143L43.1463 36.2398L42.2198 40.7021Z" fill="#000088"/>
<path d="M49.9596 38.3055C50.1305 38.4366 50.3753 38.4043 50.5064 38.2335C50.6375 38.0626 50.6053 37.8178 50.4344 37.6866C50.2635 37.5555 50.0187 37.5877 49.8876 37.7586C49.7565 37.9295 49.7887 38.1743 49.9596 38.3055Z" fill="#000088"/>
<path d="M40.3903 39.9446L42.8904 36.1342L43.7486 34.1278L42.4401 35.8742L40.3903 39.9446Z" fill="#000088"/>
<path d="M48.4897 39.6326C48.6208 39.8035 48.8656 39.8357 49.0365 39.7046C49.2074 39.5735 49.2396 39.3287 49.1085 39.1578C48.9774 38.9869 48.7326 38.9547 48.5617 39.0858C48.3908 39.2169 48.3586 39.4617 48.4897 39.6326Z" fill="#000088"/>
<path d="M38.8212 38.7392L42.2224 35.7057L43.5706 33.9898L41.8547 35.338L38.8212 38.7392Z" fill="#000088"/>
<path d="M46.7216 40.5336C46.804 40.7326 47.0322 40.8271 47.2311 40.7446C47.4301 40.6622 47.5246 40.4341 47.4422 40.2351C47.3598 40.0361 47.1317 39.9416 46.9327 40.024C46.7337 40.1064 46.6392 40.3346 46.7216 40.5336Z" fill="#000088"/>
<path d="M37.6159 37.1685L41.6863 35.1186L43.4327 33.8101L41.4263 34.6683L37.6159 37.1685Z" fill="#000088"/>
<path d="M44.7834 40.947C44.8116 41.1605 45.0075 41.3108 45.221 41.2827C45.4346 41.2546 45.5849 41.0587 45.5568 40.8452C45.5287 40.6316 45.3327 40.4813 45.1192 40.5094C44.9056 40.5375 44.7553 40.7334 44.7834 40.947Z" fill="#000088"/>
<path d="M36.8588 35.3396L41.321 34.4132L43.3466 33.6012L41.1865 33.9109L36.8588 35.3396Z" fill="#000088"/>
<path d="M42.8047 40.8444C42.7766 41.058 42.9269 41.2539 43.1404 41.282C43.354 41.3101 43.5499 41.1598 43.578 40.9462C43.6061 40.7327 43.4558 40.5368 43.2422 40.5087C43.0287 40.4806 42.8328 40.6309 42.8047 40.8444Z" fill="#000088"/>
<path d="M36.5997 33.3769L41.1497 33.6369L43.3164 33.3769L41.1497 33.1169L36.5997 33.3769Z" fill="#000088"/>
<path d="M40.9192 40.233C40.8368 40.432 40.9313 40.6601 41.1303 40.7425C41.3293 40.8249 41.5574 40.7305 41.6398 40.5315C41.7222 40.3325 41.6277 40.1043 41.4287 40.0219C41.2298 39.9395 41.0016 40.034 40.9192 40.233Z" fill="#000088"/>
<path d="M36.859 31.4144L41.1866 32.8431L43.3468 33.1528L41.3212 32.3408L36.859 31.4144Z" fill="#000088"/>
<path d="M39.257 39.1542C39.1259 39.325 39.1582 39.5699 39.329 39.701C39.4999 39.8321 39.7447 39.7999 39.8759 39.629C40.007 39.4581 39.9748 39.2133 39.8039 39.0822C39.633 38.951 39.3882 38.9833 39.257 39.1542Z" fill="#000088"/>
<path d="M37.6177 29.5853L41.4281 32.0855L43.4345 32.9437L41.6881 31.6352L37.6177 29.5853Z" fill="#000088"/>
<path d="M37.9267 37.6818C37.7558 37.813 37.7236 38.0578 37.8547 38.2287C37.9858 38.3995 38.2306 38.4318 38.4015 38.3006C38.5724 38.1695 38.6046 37.9247 38.4735 37.7538C38.3424 37.5829 38.0976 37.5507 37.9267 37.6818Z" fill="#000088"/>
<path d="M38.8207 28.0148L41.8541 31.416L43.5701 32.7642L42.2218 31.0483L38.8207 28.0148Z" fill="#000088"/>
<path d="M37.0306 35.9162C36.8317 35.9986 36.7372 36.2267 36.8196 36.4257C36.902 36.6247 37.1301 36.7192 37.3291 36.6368C37.5281 36.5544 37.6226 36.3262 37.5402 36.1272C37.4578 35.9282 37.2296 35.8337 37.0306 35.9162Z" fill="#000088"/>
<path d="M40.395 26.8098L42.4448 30.8802L43.7533 32.6266L42.8952 30.6202L40.395 26.8098Z" fill="#000088"/>
<path d="M36.615 33.9775C36.4015 34.0056 36.2512 34.2015 36.2793 34.4151C36.3074 34.6286 36.5033 34.779 36.7169 34.7509C36.9304 34.7227 37.0807 34.5268 37.0526 34.3133C37.0245 34.0997 36.8286 33.9494 36.615 33.9775Z" fill="#000088"/>
<path d="M42.2233 26.0522L43.1498 30.5144L43.9618 32.5399L43.6521 30.3798L42.2233 26.0522Z" fill="#000088"/>
<path d="M36.7191 31.9975C36.5055 31.9694 36.3096 32.1198 36.2815 32.3333C36.2534 32.5469 36.4037 32.7428 36.6172 32.7709C36.8308 32.799 37.0267 32.6487 37.0548 32.4351C37.0829 32.2216 36.9326 32.0257 36.7191 31.9975Z" fill="#000088"/>
<path d="M44.1873 25.7936L43.9273 30.3436L44.1873 32.5103L44.4473 30.3436L44.1873 25.7936Z" fill="#000088"/>
<path d="M37.3308 30.1121C37.1318 30.0296 36.9036 30.1241 36.8212 30.3231C36.7388 30.5221 36.8333 30.7503 37.0323 30.8327C37.2313 30.9151 37.4594 30.8206 37.5418 30.6216C37.6243 30.4226 37.5298 30.1945 37.3308 30.1121Z" fill="#000088"/>
<path d="M46.1494 26.0521L44.7206 30.3798L44.411 32.5399L45.2229 30.5143L46.1494 26.0521Z" fill="#000088"/>
<path d="M38.4096 28.4489C38.2387 28.3178 37.9939 28.3501 37.8627 28.5209C37.7316 28.6918 37.7639 28.9366 37.9347 29.0678C38.1056 29.1989 38.3504 29.1666 38.4816 28.9958C38.6127 28.8249 38.5804 28.5801 38.4096 28.4489Z" fill="#000088"/>
<path d="M47.9789 26.8098L45.4787 30.6202L44.6205 32.6266L45.929 30.8802L47.9789 26.8098Z" fill="#000088"/>
<path d="M39.8794 27.1213C39.7483 26.9504 39.5035 26.9182 39.3326 27.0493C39.1617 27.1804 39.1295 27.4252 39.2606 27.5961C39.3918 27.767 39.6366 27.7992 39.8075 27.6681C39.9783 27.537 40.0106 27.2922 39.8794 27.1213Z" fill="#000088"/>
<path d="M49.548 28.0148L46.1468 31.0482L44.7986 32.7642L46.5145 31.4159L49.548 28.0148Z" fill="#000088"/>
<path d="M41.6456 26.2206C41.5632 26.0216 41.335 25.9271 41.136 26.0095C40.937 26.0919 40.8425 26.3201 40.925 26.5191C41.0074 26.7181 41.2355 26.8126 41.4345 26.7301C41.6335 26.6477 41.728 26.4196 41.6456 26.2206Z" fill="#000088"/>
<path d="M50.7513 29.5854L46.6808 31.6353L44.9345 32.9438L46.9408 32.0856L50.7513 29.5854Z" fill="#000088"/>
<path d="M43.5837 25.8072C43.5556 25.5936 43.3597 25.4433 43.1462 25.4714C42.9326 25.4995 42.7823 25.6954 42.8104 25.909C42.8385 26.1225 43.0344 26.2729 43.248 26.2447C43.4615 26.2166 43.6119 26.0207 43.5837 25.8072Z" fill="#000088"/>
<path d="M51.5084 31.4145L47.0461 32.341L45.0206 33.1529L47.1807 32.8433L51.5084 31.4145Z" fill="#000088"/>
<path d="M45.5645 25.9097C45.5926 25.6962 45.4423 25.5003 45.2287 25.4722C45.0152 25.444 44.8193 25.5944 44.7911 25.8079C44.763 26.0215 44.9133 26.2174 45.1269 26.2455C45.3404 26.2736 45.5364 26.1233 45.5645 25.9097Z" fill="#000088"/>
<path d="M51.7694 33.3772L47.2194 33.1172L45.0527 33.3772L47.2194 33.6372L51.7694 33.3772Z" fill="#000088"/>
<path d="M47.45 26.5212C47.5324 26.3222 47.4379 26.0941 47.2389 26.0116C47.0399 25.9292 46.8118 26.0237 46.7293 26.2227C46.6469 26.4217 46.7414 26.6498 46.9404 26.7323C47.1394 26.8147 47.3675 26.7202 47.45 26.5212Z" fill="#000088"/>
<path d="M51.5102 35.3398L47.1825 33.911L45.0224 33.6014L47.0479 34.4133L51.5102 35.3398Z" fill="#000088"/>
<path d="M49.1101 27.6C49.2413 27.4291 49.209 27.1843 49.0381 27.0532C48.8673 26.9221 48.6224 26.9543 48.4913 27.1252C48.3602 27.296 48.3924 27.5409 48.5633 27.672C48.7342 27.8031 48.979 27.7709 49.1101 27.6Z" fill="#000088"/>
<path d="M50.7495 37.1688L46.9391 34.6686L44.9327 33.8105L46.6791 35.119L50.7495 37.1688Z" fill="#000088"/>
<path d="M50.4405 29.0723C50.6114 28.9412 50.6436 28.6964 50.5125 28.5255C50.3814 28.3546 50.1365 28.3224 49.9657 28.4535C49.7948 28.5846 49.7625 28.8294 49.8937 29.0003C50.0248 29.1712 50.2696 29.2034 50.4405 29.0723Z" fill="#000088"/>
<path d="M49.5465 38.7394L46.513 35.3382L44.7971 33.99L46.1453 35.7059L49.5465 38.7394Z" fill="#000088"/>
<path d="M51.3404 30.838C51.5394 30.7556 51.6339 30.5274 51.5515 30.3284C51.4691 30.1294 51.2409 30.0349 51.042 30.1174C50.843 30.1998 50.7485 30.4279 50.8309 30.6269C50.9133 30.8259 51.1415 30.9204 51.3404 30.838Z" fill="#000088"/>
<path d="M47.9761 39.9446L45.9262 35.8742L44.6177 34.1278L45.4759 36.1342L47.9761 39.9446Z" fill="#000088"/>
<path d="M51.7541 32.7766C51.9676 32.7485 52.118 32.5526 52.0899 32.3391C52.0617 32.1255 51.8658 31.9752 51.6523 32.0033C51.4387 32.0314 51.2884 32.2273 51.3165 32.4409C51.3446 32.6544 51.5406 32.8047 51.7541 32.7766Z" fill="#000088"/>
<path d="M46.1458 40.702L45.2193 36.2397L44.4074 34.2142L44.717 36.3743L46.1458 40.702Z" fill="#000088"/>
</svg>
