<svg width="94" height="66" viewBox="0 0 94 66" fill="none" xmlns="http://www.w3.org/2000/svg">
<path fill-rule="evenodd" clip-rule="evenodd" d="M93.3496 65.8767H0.648438V0.876709H93.3496V65.8767Z" fill="white"/>
<path fill-rule="evenodd" clip-rule="evenodd" d="M47.8125 33.4275C47.8125 37.2154 46.3078 40.8481 43.6293 43.5265C40.9509 46.205 37.3182 47.7097 33.5303 47.7097C29.7424 47.7097 26.1097 46.205 23.4312 43.5265C20.7528 40.8481 19.248 37.2154 19.248 33.4275C19.248 29.6396 20.7528 26.0069 23.4312 23.3284C26.1097 20.65 29.7424 19.1453 33.5303 19.1453C37.3182 19.1453 40.9509 20.65 43.6293 23.3284C46.3078 26.0069 47.8125 29.6396 47.8125 33.4275Z" fill="white"/>
<path fill-rule="evenodd" clip-rule="evenodd" d="M65.7236 34.2654C65.7236 44.5486 57.4717 52.9021 47.2773 52.9021C37.083 52.9021 28.8438 44.5486 28.8438 34.2654C28.8438 23.9822 37.0957 15.616 47.29 15.616C57.4844 15.616 65.7236 23.9822 65.7236 34.2654Z" fill="#C70000"/>
<path fill-rule="evenodd" clip-rule="evenodd" d="M9.56055 16.9744L20.1738 4.698L22.7002 6.8689L12.0742 19.158L9.56055 16.9744ZM13.0391 19.9832L23.6523 7.70679L26.1787 9.86499L15.5527 22.1667L13.0391 19.9832Z" fill="black"/>
<path fill-rule="evenodd" clip-rule="evenodd" d="M9.56055 16.9744L20.1738 4.698L22.7002 6.8689L12.0742 19.158L9.56055 16.9744Z" fill="black"/>
<path fill-rule="evenodd" clip-rule="evenodd" d="M9.56055 16.9744L20.1738 4.698L22.7002 6.8689L12.0742 19.158L9.56055 16.9744ZM16.5938 23.0681L27.207 10.7664L29.7334 12.95L19.1074 25.239L16.5938 23.0681Z" fill="black"/>
<path fill-rule="evenodd" clip-rule="evenodd" d="M9.56055 16.9744L20.1738 4.698L22.7002 6.8689L12.0742 19.158L9.56055 16.9744Z" fill="black"/>
<path fill-rule="evenodd" clip-rule="evenodd" d="M9.56055 16.9744L20.1738 4.698L22.7002 6.8689L12.0742 19.158L9.56055 16.9744ZM74.1543 4.6853L84.6914 17.0505L82.1524 19.2087L71.6152 6.84351L74.1543 4.6853ZM67.083 10.7156L77.6201 23.0808L75.0811 25.239L64.5439 12.8738L67.083 10.7156Z" fill="black"/>
<path fill-rule="evenodd" clip-rule="evenodd" d="M68.8477 17.8376L78.8008 9.23022L80.667 11.3884L70.0029 20.9607L68.8223 17.8376H68.8477Z" fill="white"/>
<path fill-rule="evenodd" clip-rule="evenodd" d="M81.1123 48.1541L70.9053 60.3162L68.4043 58.2341L78.6113 46.072L81.1123 48.1541ZM70.6514 7.6687L81.1885 20.0339L78.6621 22.1921L68.1377 9.81421L70.6514 7.6687ZM84.5781 51.0359L74.3584 63.198L71.8447 61.116L82.0645 48.9539L84.5781 51.0359ZM77.583 45.2214L67.376 57.3835L64.875 55.3015L75.082 43.1394L77.583 45.2214Z" fill="black"/>
<path fill-rule="evenodd" clip-rule="evenodd" d="M29.1114 30.9774C29.6954 35.6747 30.546 40.9051 37.7696 41.4383C40.4738 41.6034 45.7423 40.8036 47.545 33.4149C49.9318 26.3309 57.0665 24.2997 61.9288 28.1336C64.7091 29.9364 65.4708 32.7928 65.6486 34.951C65.4327 41.8065 61.4718 47.7733 56.4064 50.4393C50.5665 53.9051 42.4923 53.9813 35.421 48.7254C32.2345 45.742 27.7784 40.2196 29.1114 30.9774Z" fill="#3D5897"/>
<path fill-rule="evenodd" clip-rule="evenodd" d="M71.1826 47.9763L81.1611 56.5584L79.3076 58.7166L68.25 49.6013L71.1699 47.9763H71.1826Z" fill="white"/>
<path fill-rule="evenodd" clip-rule="evenodd" d="M15.5918 46.2751L26.1289 58.6277L23.5898 60.7859L13.0527 48.4333L15.5918 46.2751Z" fill="black"/>
<path fill-rule="evenodd" clip-rule="evenodd" d="M13.7754 56.4441L23.7539 47.824L25.6201 49.9822L14.9561 59.5671L13.7754 56.4314V56.4441Z" fill="white"/>
<path fill-rule="evenodd" clip-rule="evenodd" d="M19.0947 43.2917L29.6318 55.6443L27.0928 57.8025L16.5557 45.45L19.0947 43.2917ZM12.0234 49.322L22.5605 61.6746L20.0215 63.8328L9.48438 51.4802L12.0234 49.322Z" fill="black"/>
</svg>
