<svg width="88" height="66" viewBox="0 0 88 66" fill="none" xmlns="http://www.w3.org/2000/svg">
<path d="M35.1504 0.981934H87.1504V65.9819H35.1504V0.981934Z" fill="#FF0000"/>
<path d="M0.482422 0.981934H35.1491V65.9819H0.482422V0.981934Z" fill="#006600"/>
<path fill-rule="evenodd" clip-rule="evenodd" d="M46.4577 42.4463C42.0837 42.3109 22.0827 29.8255 21.9473 27.8213L23.0441 25.9932C25.0348 28.8775 45.4827 41.0244 47.5004 40.5911L46.4577 42.4463Z" fill="#FFFF00" stroke="black" stroke-width="0.08125" stroke-linecap="round" stroke-linejoin="round"/>
<path fill-rule="evenodd" clip-rule="evenodd" d="M22.8128 25.736C22.4201 26.7923 28.0399 30.2589 34.7836 34.3756C41.5409 38.4787 47.3638 41.011 47.7836 40.6589L47.9867 40.2798C47.9055 40.4152 47.7159 40.4558 47.4045 40.361C45.5763 39.8329 40.8232 37.6527 34.9326 34.0777C29.0284 30.5027 23.9097 27.212 23.1107 25.8173C23.0484 25.6865 23.0205 25.542 23.0295 25.3975H23.0024L22.8399 25.6954L22.8128 25.736ZM46.5513 42.5006C46.4836 42.636 46.3347 42.636 46.0774 42.6089C44.4524 42.4329 39.4961 40.0225 33.6326 36.5152C26.8076 32.4256 21.1742 28.7152 21.7972 27.7402L21.9597 27.4423L21.9867 27.4558C21.4451 29.1079 33.1045 35.7704 33.7951 36.2037C40.5388 40.3745 46.2263 42.8256 46.7274 42.1891L46.5513 42.5006Z" fill="#FFFF00" stroke="black" stroke-width="0.08125" stroke-linecap="round" stroke-linejoin="round"/>
<path fill-rule="evenodd" clip-rule="evenodd" d="M35.1779 29.0401C39.5383 28.9995 44.9279 28.4443 48.0424 27.1984L47.3654 26.1151C45.5372 27.1307 40.1206 27.8078 35.1372 27.9026C29.2602 27.8484 25.1029 27.2932 23.0174 25.8984L22.3945 27.063C26.2133 28.688 30.1404 29.0266 35.1779 29.0401Z" fill="#FFFF00" stroke="black" stroke-width="0.08125" stroke-linecap="round" stroke-linejoin="round"/>
<path fill-rule="evenodd" clip-rule="evenodd" d="M48.2171 27.2256C48.1087 27.4016 46.0775 28.0922 43.0983 28.6068C40.4721 29.0048 37.8191 29.1995 35.1629 29.1891C32.618 29.1987 30.0754 29.0358 27.5525 28.7016C24.4243 28.2141 22.8129 27.537 22.2035 27.2933L22.3525 26.9954C24.0723 27.6724 25.6973 28.0787 27.5931 28.3766C30.0976 28.7148 32.6222 28.8822 35.1494 28.8777C37.7918 28.8804 40.4307 28.6858 43.0441 28.2954C46.091 27.7943 47.7566 27.1579 48.0004 26.8735L48.2171 27.2391V27.2256ZM47.6212 26.1287C47.2962 26.3995 45.6441 26.9818 42.7462 27.4422C40.2438 27.8043 37.7185 27.9853 35.19 27.9839C32.2108 27.9839 29.7598 27.7672 27.9046 27.4964C24.9525 27.1172 23.3816 26.4131 22.8129 26.2235L22.9889 25.9256C23.4358 26.1558 24.9389 26.7652 27.9316 27.1849C30.3374 27.5072 32.7628 27.661 35.19 27.6454C37.7005 27.6461 40.2077 27.4651 42.6921 27.1037C45.6035 26.6974 47.1744 25.9662 47.4181 25.7766L47.6212 26.1287ZM20.8358 34.2943C23.5171 35.7433 29.4889 36.461 35.1358 36.5152C40.2816 36.5287 46.9712 35.7297 49.4764 34.4027L49.4087 32.9537C48.6233 34.1724 41.4462 35.3506 35.0816 35.3099C28.7171 35.2558 22.7993 34.2808 20.8223 33.0079V34.2943" fill="#FFFF00"/>
<path d="M20.8358 34.2943C23.5171 35.7433 29.4889 36.461 35.1358 36.5152C40.2816 36.5287 46.9712 35.7297 49.4764 34.4027L49.4087 32.9537C48.6233 34.1724 41.4462 35.3506 35.0816 35.3099C28.7171 35.2558 22.7993 34.2808 20.8223 33.0079V34.2943M48.2171 27.2256C48.1087 27.4016 46.0775 28.0922 43.0983 28.6068C40.4721 29.0048 37.8191 29.1995 35.1629 29.1891C32.618 29.1987 30.0754 29.0358 27.5525 28.7016C24.4243 28.2141 22.8129 27.537 22.2035 27.2933L22.3525 26.9954C24.0723 27.6724 25.6973 28.0787 27.5931 28.3766C30.0976 28.7148 32.6222 28.8822 35.1493 28.8777C37.7918 28.8804 40.4307 28.6858 43.0441 28.2954C46.091 27.7943 47.7566 27.1579 48.0004 26.8735L48.2171 27.2391V27.2256ZM47.6212 26.1287C47.2962 26.3995 45.6441 26.9818 42.7462 27.4422C40.2438 27.8043 37.7185 27.9853 35.19 27.9839C32.2108 27.9839 29.7598 27.7672 27.9046 27.4964C24.9525 27.1172 23.3816 26.4131 22.8129 26.2235L22.9889 25.9256C23.4358 26.1558 24.9389 26.7652 27.9316 27.1849C30.3374 27.5072 32.7628 27.661 35.19 27.6454C37.7005 27.6461 40.2077 27.4651 42.6921 27.1037C45.6035 26.6974 47.1744 25.9662 47.4181 25.7766L47.6212 26.1287Z" stroke="black" stroke-width="0.08125" stroke-linecap="round" stroke-linejoin="round"/>
<path fill-rule="evenodd" clip-rule="evenodd" d="M49.6122 34.091V34.4296C49.2331 34.89 46.8768 35.5671 43.9247 36.0546C40.9919 36.4761 38.0314 36.6753 35.0685 36.6504C32.259 36.6743 29.4519 36.4797 26.6727 36.0681C24.5988 35.8285 22.5724 35.2808 20.6602 34.4431V34.0504C21.9737 34.9171 25.5216 35.5671 26.7133 35.7567C28.8529 36.0817 31.6018 36.3254 35.0685 36.3254C38.7112 36.3254 41.6227 36.0681 43.8706 35.7296C45.9966 35.4181 49.0164 34.6192 49.6122 34.091ZM49.6122 32.8723V33.2108C49.2331 33.6577 46.8768 34.3348 43.9247 34.8223C40.9922 35.2484 38.0317 35.4521 35.0685 35.4317C32.2592 35.4482 29.4527 35.2535 26.6727 34.8494C24.5988 34.6097 22.5724 34.062 20.6602 33.2244V32.8181C21.9737 33.6983 25.5352 34.3348 26.7133 34.5244C29.4796 34.9296 32.2727 35.1242 35.0685 35.1067C38.7112 35.1067 41.6362 34.8358 43.8706 34.4973C45.9966 34.1994 49.0164 33.4004 49.6122 32.8723ZM35.1227 42.1889C28.9477 42.1619 23.6529 40.5098 22.5289 40.2389L23.3414 41.5119C27.1397 42.8571 31.1478 43.5129 35.1768 43.4483C39.8758 43.3129 43.9789 42.9473 46.8633 41.5389L47.7029 40.2119C45.7393 41.1462 39.0362 42.1889 35.1091 42.1889" fill="#FFFF00"/>
<path d="M35.1227 42.1889C28.9477 42.1619 23.6529 40.5098 22.5289 40.2389L23.3414 41.5119C27.1397 42.8571 31.1478 43.5129 35.1768 43.4483C39.8758 43.3129 43.9789 42.9473 46.8633 41.5389L47.7029 40.2119C45.7393 41.1462 39.0362 42.1889 35.1091 42.1889M49.6122 34.091V34.4296C49.2331 34.89 46.8768 35.5671 43.9247 36.0546C40.9919 36.4761 38.0314 36.6753 35.0685 36.6504C32.259 36.6743 29.4519 36.4797 26.6727 36.0681C24.5988 35.8285 22.5724 35.2808 20.6602 34.4431V34.0504C21.9737 34.9171 25.5216 35.5671 26.7133 35.7567C28.8529 36.0817 31.6018 36.3254 35.0685 36.3254C38.7112 36.3254 41.6227 36.0681 43.8706 35.7296C45.9966 35.4181 49.0164 34.6192 49.6122 34.091ZM49.6122 32.8723V33.2108C49.2331 33.6577 46.8768 34.3348 43.9247 34.8223C40.9922 35.2484 38.0317 35.4521 35.0685 35.4317C32.2592 35.4482 29.4527 35.2535 26.6727 34.8494C24.5988 34.6097 22.5724 34.062 20.6602 33.2244V32.8181C21.9737 33.6983 25.5352 34.3348 26.7133 34.5244C29.4796 34.9296 32.2727 35.1242 35.0685 35.1067C38.7112 35.1067 41.6362 34.8358 43.8706 34.4973C45.9966 34.1994 49.0164 33.4004 49.6122 32.8723Z" stroke="black" stroke-width="0.08125" stroke-linecap="round" stroke-linejoin="round"/>
<path fill-rule="evenodd" clip-rule="evenodd" d="M47.1883 41.2411C47.065 41.4238 46.9386 41.6044 46.8091 41.7828C45.4549 42.2703 43.2883 42.7848 42.3945 42.9203C39.9963 43.3672 37.5622 43.5938 35.1227 43.5973C29.6518 43.5161 25.1695 42.4463 23.0706 41.5255L22.8945 41.2411L22.9216 41.1869L23.206 41.3088C27.06 42.5842 31.0903 43.2467 35.1497 43.2723C37.6956 43.2723 40.2279 42.988 42.2727 42.6223C45.4143 41.9859 46.6872 41.5119 47.0799 41.2953L47.1747 41.2411H47.1883ZM47.906 40.0494C47.8168 40.208 47.7265 40.366 47.6352 40.5234C46.9039 40.7942 44.9268 41.363 42.0424 41.7692C40.1466 42.0265 38.9685 42.2838 35.1904 42.3515C30.8714 42.3082 26.579 41.6702 22.4341 40.4557L22.2852 40.1171C26.4964 41.281 30.8358 41.9178 35.2039 42.013C38.657 41.9453 40.1331 41.688 42.0154 41.4307C45.3737 40.9161 47.0664 40.3473 47.5674 40.1984C47.5678 40.1894 47.5678 40.1803 47.5674 40.1713L47.9195 40.0359L47.906 40.0494Z" fill="#FFFF00" stroke="black" stroke-width="0.08125" stroke-linecap="round" stroke-linejoin="round"/>
<path fill-rule="evenodd" clip-rule="evenodd" d="M47.9869 33.1567C48.0004 37.2192 45.915 40.8754 44.2494 42.4734C41.7893 44.8726 38.5041 46.2391 35.0681 46.2921C30.965 46.3598 27.1056 43.6921 26.0629 42.514C23.7303 40.0403 22.4026 36.7864 22.339 33.3869C22.5827 28.9452 24.3296 25.8577 26.8483 23.7317C29.2951 21.7175 32.373 20.6292 35.5421 20.6577C37.392 20.7474 39.2029 21.2226 40.8585 22.0527C42.5142 22.8829 43.9782 24.0498 45.1567 25.4786C46.8494 27.5369 47.5942 29.7713 47.9869 33.1567ZM35.0952 19.2629C38.8835 19.2628 42.5182 20.7603 45.207 23.4288C47.8959 26.0973 49.4208 29.7206 49.4494 33.5088C49.4494 35.3885 49.0791 37.2497 48.3598 38.9863C47.6405 40.7229 46.5862 42.3008 45.257 43.63C43.9279 44.9591 42.35 46.0134 40.6134 46.7328C38.8768 47.4521 37.0155 47.8223 35.1358 47.8223C33.2561 47.8223 31.3949 47.4521 29.6583 46.7328C27.9217 46.0134 26.3438 44.9591 25.0146 43.63C23.6855 42.3008 22.6312 40.7229 21.9118 38.9863C21.1925 37.2497 20.8223 35.3885 20.8223 33.5088C20.8087 25.6546 27.2275 19.2629 35.0952 19.2629Z" fill="#FFFF00" stroke="black" stroke-width="0.08125" stroke-linecap="round" stroke-linejoin="round"/>
<path fill-rule="evenodd" clip-rule="evenodd" d="M35.1361 19.1953C43.0173 19.1953 49.4361 25.6141 49.4361 33.4953C49.4361 41.3766 43.0173 47.7953 35.1496 47.7953C27.2819 47.7953 20.8496 41.3766 20.8496 33.4953C20.8496 25.6141 27.2684 19.1953 35.1496 19.1953H35.1361ZM21.1475 33.4818C21.1475 41.1734 27.4715 47.4703 35.1361 47.4703C42.8007 47.4703 49.1246 41.1734 49.1246 33.4818C49.1246 25.7901 42.8007 19.4932 35.1361 19.4932C27.4715 19.4932 21.1475 25.7901 21.1475 33.4818Z" fill="#FFFF00" stroke="black" stroke-width="0.08125" stroke-linecap="round" stroke-linejoin="round"/>
<path fill-rule="evenodd" clip-rule="evenodd" d="M35.1495 20.387C38.6191 20.3977 41.9436 21.7807 44.3971 24.2342C46.8505 26.6876 48.2336 30.0121 48.2443 33.4818C48.2336 36.9527 46.8509 40.2786 44.3979 42.7342C41.9448 45.1897 38.6204 46.5758 35.1495 46.5901C27.9724 46.5901 22.0547 40.6859 22.0547 33.4818C22.0689 30.0132 23.4532 26.6908 25.9058 24.2381C28.3585 21.7854 31.6809 20.4012 35.1495 20.387ZM22.3661 33.4818C22.3661 40.5234 28.1349 46.2651 35.1495 46.2651C42.1641 46.2651 47.9328 40.5099 47.9328 33.4818C47.9328 26.4401 42.1641 20.6984 35.1495 20.6984C31.7635 20.7127 28.5203 22.0641 26.126 24.4583C23.7318 26.8526 22.3804 30.0958 22.3661 33.4818Z" fill="#FFFF00" stroke="black" stroke-width="0.08125" stroke-linecap="round" stroke-linejoin="round"/>
<path fill-rule="evenodd" clip-rule="evenodd" d="M35.7323 19.1277H34.5V47.8766H35.7188L35.7323 19.1277Z" fill="#FFFF00" stroke="black" stroke-width="0.08125" stroke-linecap="round" stroke-linejoin="round"/>
<path fill-rule="evenodd" clip-rule="evenodd" d="M35.5977 18.9651H35.9091V48.039H35.6112V18.9651H35.5977ZM34.3789 18.9651H34.7039V48.039H34.3924V18.9651H34.3789Z" fill="#FFFF00" stroke="black" stroke-width="0.08125" stroke-linecap="round" stroke-linejoin="round"/>
<path fill-rule="evenodd" clip-rule="evenodd" d="M49.449 34.0505V32.9943L48.5823 32.1818L43.6667 30.8818L36.5979 30.1641L28.0667 30.5974L22 32.0328L20.7812 32.9401V34.0099L23.8823 32.6151L31.249 31.4641H38.3312L43.5312 32.0328L47.1333 32.8995L49.449 34.0505Z" fill="#FFFF00" stroke="black" stroke-width="0.08125" stroke-linecap="round" stroke-linejoin="round"/>
<path fill-rule="evenodd" clip-rule="evenodd" d="M35.1497 31.2881C38.5216 31.2881 41.7852 31.5995 44.3987 32.1006C47.0799 32.6422 48.9622 33.3193 49.6122 34.0641V34.4433C48.8268 33.4954 46.2945 32.8183 44.331 32.412C41.7581 31.9245 38.5081 31.5995 35.1362 31.5995C31.6018 31.5995 28.2977 31.9516 25.7518 32.4391C23.7206 32.8454 20.9987 33.6579 20.6602 34.4433V34.0506C20.8362 33.5089 22.8674 32.6964 25.7112 32.1141C28.2706 31.6131 31.5747 31.2881 35.1362 31.2881H35.1497ZM35.1497 30.0558C38.2508 30.0496 41.3462 30.3215 44.3987 30.8683C47.0799 31.4099 48.9622 32.087 49.6122 32.8454V33.211C48.8268 32.2766 46.2945 31.586 44.331 31.1933C41.7581 30.6922 38.5081 30.3808 35.1362 30.3808C31.9934 30.3708 28.8564 30.6519 25.7654 31.2204C23.8018 31.586 20.9716 32.4256 20.6602 33.211V32.8318C20.8497 32.2901 22.9081 31.437 25.7112 30.8954C28.2841 30.3943 31.5747 30.0558 35.1497 30.0558ZM35.0685 23.7995C40.3904 23.7724 45.0352 24.5443 47.1612 25.6276L47.9331 26.9818C46.0914 25.9797 41.081 24.9506 35.082 25.086C30.1935 25.1266 24.9664 25.6276 22.3529 27.036L23.2737 25.4922C25.4268 24.3683 30.4914 23.7995 35.0685 23.7995Z" fill="#FFFF00" stroke="black" stroke-width="0.08125" stroke-linecap="round" stroke-linejoin="round"/>
<path fill-rule="evenodd" clip-rule="evenodd" d="M35.1495 24.91C37.9281 24.8631 40.7056 25.0579 43.4505 25.4923C45.6172 25.8985 47.6891 26.4943 47.987 26.8193L48.2172 27.2256C47.4995 26.7652 45.6984 26.237 43.3964 25.8037C41.0943 25.3704 38.1557 25.2214 35.1359 25.235C31.7099 25.2214 29.0422 25.3975 26.7672 25.8037C25.1989 26.0235 23.6763 26.4945 22.2578 27.1985L22.488 26.7787C23.3005 26.3725 24.5599 25.8714 26.6995 25.4787C29.0693 25.0454 31.7641 24.9235 35.1495 24.91ZM35.1495 23.6912C38.0474 23.6641 40.9182 23.8266 43.1526 24.2329C44.6002 24.4478 46.0012 24.9056 47.2964 25.587L47.6349 26.1287C47.0661 25.4923 44.9266 24.8829 43.0172 24.5579C40.7964 24.1652 38.0474 24.0162 35.1495 23.9891C32.4519 23.9651 29.7569 24.1644 27.0922 24.585C25.6989 24.7791 24.3456 25.1951 23.0839 25.8173L23.3818 25.3704C24.1672 24.9641 25.4401 24.585 27.038 24.2735C29.7203 23.8474 32.4337 23.6481 35.1495 23.6777V23.6912ZM42.2453 39.4402C39.8982 39.0338 37.5176 38.8524 35.1359 38.8985C26.2661 39.0068 23.4089 40.7266 23.0568 41.2412L22.3797 40.1579C24.6547 38.5329 29.4755 37.612 35.1901 37.6933C38.1557 37.7475 40.7151 37.9506 42.8547 38.3704L42.2453 39.4537" fill="#FFFF00"/>
<path d="M42.2453 39.4402C39.8982 39.0338 37.5176 38.8524 35.1359 38.8985C26.2661 39.0068 23.4089 40.7266 23.0568 41.2412L22.3797 40.1579C24.6547 38.5329 29.4755 37.612 35.1901 37.6933C38.1557 37.7475 40.7151 37.9506 42.8547 38.3704L42.2453 39.4537M35.1495 24.91C37.9281 24.8631 40.7056 25.0579 43.4505 25.4923C45.6172 25.8985 47.6891 26.4943 47.987 26.8193L48.2172 27.2256C47.4995 26.7652 45.6984 26.237 43.3964 25.8037C41.0943 25.3704 38.1557 25.2214 35.1359 25.235C31.7099 25.2214 29.0422 25.3975 26.7672 25.8037C25.1989 26.0235 23.6763 26.4945 22.2578 27.1985L22.488 26.7787C23.3005 26.3725 24.5599 25.8714 26.6995 25.4787C29.0693 25.0454 31.7641 24.9235 35.1495 24.91ZM35.1495 23.6912C38.0474 23.6641 40.9182 23.8266 43.1526 24.2329C44.6002 24.4478 46.0012 24.9056 47.2964 25.587L47.6349 26.1287C47.0661 25.4923 44.9266 24.8829 43.0172 24.5579C40.7964 24.1652 38.0474 24.0162 35.1495 23.9891C32.4519 23.9651 29.7569 24.1644 27.0922 24.585C25.6989 24.7791 24.3456 25.1951 23.0839 25.8173L23.3818 25.3704C24.1672 24.9641 25.4401 24.585 27.038 24.2735C29.7203 23.8474 32.4337 23.6481 35.1495 23.6777V23.6912Z" stroke="black" stroke-width="0.08125" stroke-linecap="round" stroke-linejoin="round"/>
<path fill-rule="evenodd" clip-rule="evenodd" d="M35.0954 38.7495C37.56 38.7901 39.9704 38.8849 42.3132 39.3183L42.1507 39.6162C39.984 39.2099 37.6548 39.0745 35.109 39.0745C31.8184 39.0474 28.5142 39.3589 25.6298 40.1849C24.7225 40.4422 23.2194 41.0245 23.0569 41.512L22.8944 41.2412C22.9486 40.9433 23.8423 40.3474 25.5486 39.887C28.8527 38.9391 31.9402 38.7631 35.0954 38.7495ZM35.2038 37.5037C37.8051 37.501 40.4016 37.7276 42.9632 38.1808L42.7871 38.4922C40.2858 38.0334 37.7468 37.8112 35.2038 37.8287C31.9267 37.8287 28.4465 38.0724 25.2777 38.9933C24.2621 39.2912 22.4882 39.9412 22.434 40.4422L22.2715 40.1443C22.2986 39.6839 23.8288 39.0745 25.21 38.6818C28.3923 37.7474 31.8861 37.5172 35.2038 37.5037Z" fill="#FFFF00" stroke="black" stroke-width="0.08125" stroke-linecap="round" stroke-linejoin="round"/>
<path fill-rule="evenodd" clip-rule="evenodd" d="M47.798 40.3204L46.7418 41.986L43.6678 39.2641L35.7324 33.9152L26.7678 28.9995L22.123 27.4152L23.1116 25.5735L23.4501 25.3975L26.3345 26.1152L35.8678 31.0308L41.3658 34.4975L45.9835 37.8152L47.8658 39.9818L47.798 40.3204Z" fill="#FFFF00" stroke="black" stroke-width="0.08125" stroke-linecap="round" stroke-linejoin="round"/>
<path fill-rule="evenodd" clip-rule="evenodd" d="M21.9612 27.4558C22.7737 26.9141 28.7591 29.5683 35.0424 33.3599C41.2852 37.1516 47.2706 41.4308 46.7289 42.2297L46.5529 42.5141L46.4716 42.5818C46.4852 42.5683 46.5799 42.4464 46.4716 42.162C46.2008 41.2818 41.9487 37.8964 34.9206 33.6443C28.0549 29.5683 22.3404 27.1037 21.7852 27.8079L21.9612 27.4558ZM48.0154 40.3068C48.5299 39.2776 42.9779 35.0933 36.0852 31.0172C29.0435 27.0224 23.9518 24.6662 23.0174 25.3704L22.8279 25.7631C22.8279 25.7766 22.8279 25.736 22.882 25.6954C23.0445 25.5599 23.3289 25.5599 23.4508 25.5599C25.0487 25.587 29.6122 27.686 36.0174 31.3558C38.8341 32.9808 47.8799 38.8037 47.8393 40.4287C47.8393 40.5641 47.8529 40.5912 47.7987 40.6724L48.0289 40.3204L48.0154 40.3068Z" fill="#FFFF00" stroke="black" stroke-width="0.08125" stroke-linecap="round" stroke-linejoin="round"/>
<path d="M26.5703 35.0753C26.5725 36.1966 26.797 37.3063 27.2309 38.3402C27.6648 39.3741 28.2994 40.3117 29.0981 41.0987C29.887 41.8998 30.8267 42.5368 31.863 42.9731C32.8992 43.4095 34.0115 43.6364 35.1359 43.6409C37.4114 43.6407 39.5936 42.7367 41.2026 41.1276C41.9984 40.3362 42.6302 39.3955 43.0615 38.3594C43.4928 37.3232 43.7152 36.2121 43.7159 35.0898V23.6497L26.5703 23.6208V35.0753Z" fill="white" stroke="black" stroke-width="0.101111"/>
<path d="M26.8887 35.0897C26.8917 36.1653 27.1077 37.2296 27.5242 38.2213C27.9407 39.2129 28.5495 40.1123 29.3153 40.8675C30.8532 42.4134 32.9415 43.2861 35.122 43.2942C37.2987 43.2954 39.387 42.433 40.9287 40.8964C41.692 40.14 42.2981 39.2401 42.7121 38.2485C43.1261 37.2569 43.3398 36.1932 43.3409 35.1186V23.9963H26.9176V35.0897M40.062 27.333V34.3964L40.0476 35.133C40.0525 35.7783 39.927 36.418 39.6788 37.0137C39.4306 37.6093 39.0648 38.1488 38.6032 38.5997C37.6846 39.5215 36.4378 40.041 35.1365 40.0442C33.7787 40.0442 32.5798 39.4664 31.6842 38.5708C30.7625 37.6523 30.243 36.4054 30.2398 35.1041V27.3041L40.062 27.333Z" fill="#FF0000"/>
<path d="M26.8887 35.0897C26.8917 36.1653 27.1077 37.2296 27.5242 38.2213C27.9407 39.2129 28.5495 40.1123 29.3153 40.8675C30.8532 42.4134 32.9415 43.2861 35.122 43.2942C37.2987 43.2954 39.387 42.433 40.9287 40.8964C41.692 40.14 42.2981 39.2401 42.7121 38.2485C43.1261 37.2569 43.3398 36.1932 43.3409 35.1186V23.9963H26.9176V35.0897M40.062 27.333V34.3964L40.0476 35.133C40.0525 35.7783 39.927 36.418 39.6788 37.0137C39.4306 37.6093 39.0648 38.1488 38.6032 38.5997C37.6846 39.5215 36.4378 40.041 35.1365 40.0442C33.7787 40.0442 32.5798 39.4664 31.6842 38.5708C30.7625 37.6523 30.243 36.4054 30.2398 35.1041V27.3041L40.062 27.333Z" stroke="black" stroke-width="0.0722224"/>
<path d="M27.957 26.8992C27.9715 26.1048 28.5348 25.917 28.5348 25.917C28.5493 25.917 29.1559 26.1192 29.1559 26.9137H27.957" fill="#FFFF00"/>
<path d="M27.4655 25.9314L27.3644 26.8414H27.971C27.971 26.0903 28.5488 25.9748 28.5488 25.9748C28.5633 25.9748 29.1266 26.1337 29.141 26.8414H29.7477L29.6322 25.917H27.4655V25.9314ZM27.321 26.8559H29.7766C29.8199 26.8559 29.8633 26.8992 29.8633 26.957C29.8633 27.0292 29.8199 27.0726 29.7766 27.0726H27.321C27.2777 27.0726 27.2344 27.0292 27.2344 26.957C27.2344 26.8992 27.2777 26.8559 27.3355 26.8559H27.321Z" fill="#FFFF00" stroke="black" stroke-width="0.0722224"/>
<path d="M28.2155 26.8415C28.2155 26.3649 28.5477 26.2349 28.5477 26.2349C28.5477 26.2349 28.8799 26.3793 28.8799 26.8415H28.2155ZM27.3777 25.5415H29.7321C29.7755 25.5415 29.8188 25.5993 29.8188 25.6571C29.8188 25.7004 29.7755 25.7438 29.7321 25.7438H27.3777C27.3343 25.7438 27.291 25.7004 27.291 25.6427C27.291 25.5993 27.3343 25.556 27.3777 25.556V25.5415ZM27.4355 25.7582H29.6599C29.7032 25.7582 29.7466 25.8015 29.7466 25.8593C29.7466 25.9171 29.7032 25.9604 29.6599 25.9604H27.421C27.3632 25.9604 27.3343 25.9171 27.3343 25.8593C27.3343 25.8015 27.3632 25.7582 27.421 25.7582H27.4355ZM28.1577 24.2271H28.331V24.3426H28.461V24.2271H28.6488V24.3571H28.7788V24.2126H28.9521V24.5015C28.9521 24.5593 28.9232 24.5882 28.8799 24.5882H28.2444C28.201 24.5882 28.1577 24.5593 28.1577 24.516V24.2271ZM28.8221 24.6171L28.8655 25.5415H28.2444L28.2877 24.6026H28.8221" fill="#FFFF00"/>
<path d="M28.8221 24.6171L28.8655 25.5415H28.2444L28.2877 24.6026H28.8221M28.2155 26.8415C28.2155 26.3649 28.5477 26.2349 28.5477 26.2349C28.5477 26.2349 28.8799 26.3793 28.8799 26.8415H28.2155ZM27.3777 25.5415H29.7321C29.7755 25.5415 29.8188 25.5993 29.8188 25.6571C29.8188 25.7004 29.7755 25.7438 29.7321 25.7438H27.3777C27.3343 25.7438 27.291 25.7004 27.291 25.6427C27.291 25.5993 27.3343 25.556 27.3777 25.556V25.5415ZM27.4355 25.7582H29.6599C29.7032 25.7582 29.7466 25.8015 29.7466 25.8593C29.7466 25.9171 29.7032 25.9604 29.6599 25.9604H27.421C27.3632 25.9604 27.3343 25.9171 27.3343 25.8593C27.3343 25.8015 27.3632 25.7582 27.421 25.7582H27.4355ZM28.1577 24.2271H28.331V24.3426H28.461V24.2271H28.6488V24.3571H28.7788V24.2126H28.9521V24.5015C28.9521 24.5593 28.9232 24.5882 28.8799 24.5882H28.2444C28.201 24.5882 28.1577 24.5593 28.1577 24.516V24.2271Z" stroke="black" stroke-width="0.0722224"/>
<path d="M28.0719 25.0503V25.5414H27.4941V25.0503H28.0719Z" fill="#FFFF00" stroke="black" stroke-width="0.0722224"/>
<path d="M29.6032 25.0505V25.5416H29.0254V25.0505H29.6032Z" fill="#FFFF00" stroke="black" stroke-width="0.0722224"/>
<path d="M27.3926 24.6748H27.5659V24.8192H27.6959V24.6748H27.8692V24.8192H27.9992V24.6748H28.1726V24.9637C28.1726 25.0215 28.1437 25.0504 28.1004 25.0504H27.4792C27.4563 25.0504 27.4342 25.0412 27.418 25.025C27.4017 25.0087 27.3926 24.9867 27.3926 24.9637V24.6748Z" fill="#FFFF00" stroke="black" stroke-width="0.0722224"/>
<path d="M28.9238 24.6748H29.0972V24.8192H29.2272V24.6748H29.4005V24.8192H29.5305V24.6748H29.7038V24.9637C29.7038 25.0215 29.6749 25.0504 29.6316 25.0504H29.0105C28.9875 25.0504 28.9655 25.0412 28.9492 25.025C28.933 25.0087 28.9238 24.9867 28.9238 24.9637V24.6748Z" fill="#FFFF00" stroke="black" stroke-width="0.0722224"/>
<path d="M28.4902 24.9061C28.4902 24.8194 28.6202 24.8194 28.6202 24.9061V25.1372H28.4902V24.9061Z" fill="black"/>
<path d="M27.7246 25.2237C27.7246 25.137 27.8402 25.137 27.8402 25.2237V25.397H27.7246V25.2237Z" fill="black"/>
<path d="M29.2559 25.2237C29.2559 25.137 29.3714 25.137 29.3714 25.2237V25.397H29.2559V25.2237Z" fill="black"/>
<path d="M27.957 33.5874C27.9715 32.793 28.5348 32.6052 28.5348 32.6052C28.5493 32.6052 29.1559 32.8074 29.1559 33.6019H27.957" fill="#FFFF00"/>
<path d="M27.4655 32.6197L27.3644 33.5297H27.971C27.971 32.7786 28.5488 32.663 28.5488 32.663C28.5633 32.663 29.1266 32.8219 29.141 33.5297H29.7477L29.6322 32.6052H27.4655V32.6197ZM27.321 33.5441H29.7766C29.8199 33.5441 29.8633 33.5874 29.8633 33.6452C29.8633 33.7174 29.8199 33.7608 29.7766 33.7608H27.321C27.2777 33.7608 27.2344 33.7174 27.2344 33.6452C27.2344 33.5874 27.2777 33.5441 27.3355 33.5441H27.321Z" fill="#FFFF00" stroke="black" stroke-width="0.0722224"/>
<path d="M28.2155 33.5295C28.2155 33.0529 28.5477 32.9229 28.5477 32.9229C28.5477 32.9229 28.8799 33.0673 28.8799 33.5295H28.2155ZM27.3777 32.2295H29.7321C29.7755 32.2295 29.8188 32.2873 29.8188 32.3451C29.8188 32.3884 29.7755 32.4317 29.7321 32.4317H27.3777C27.3343 32.4317 27.291 32.3884 27.291 32.3306C27.291 32.2873 27.3343 32.244 27.3777 32.244V32.2295ZM27.4355 32.4462H29.6599C29.7032 32.4462 29.7466 32.4895 29.7466 32.5473C29.7466 32.6051 29.7032 32.6484 29.6599 32.6484H27.421C27.3632 32.6484 27.3343 32.6051 27.3343 32.5473C27.3343 32.4895 27.3632 32.4462 27.421 32.4462H27.4355ZM28.1577 30.9151H28.331V31.0306H28.461V30.9151H28.6488V31.0451H28.7788V30.9006H28.9521V31.1895C28.9521 31.2473 28.9232 31.2762 28.8799 31.2762H28.2444C28.201 31.2762 28.1577 31.2473 28.1577 31.204V30.9151ZM28.8221 31.3051L28.8655 32.2295H28.2444L28.2877 31.2906H28.8221" fill="#FFFF00"/>
<path d="M28.8221 31.3051L28.8655 32.2295H28.2444L28.2877 31.2906H28.8221M28.2155 33.5295C28.2155 33.0529 28.5477 32.9229 28.5477 32.9229C28.5477 32.9229 28.8799 33.0673 28.8799 33.5295H28.2155ZM27.3777 32.2295H29.7321C29.7755 32.2295 29.8188 32.2873 29.8188 32.3451C29.8188 32.3884 29.7755 32.4317 29.7321 32.4317H27.3777C27.3343 32.4317 27.291 32.3884 27.291 32.3306C27.291 32.2873 27.3343 32.244 27.3777 32.244V32.2295ZM27.4355 32.4462H29.6599C29.7032 32.4462 29.7466 32.4895 29.7466 32.5473C29.7466 32.6051 29.7032 32.6484 29.6599 32.6484H27.421C27.3632 32.6484 27.3343 32.6051 27.3343 32.5473C27.3343 32.4895 27.3632 32.4462 27.421 32.4462H27.4355ZM28.1577 30.9151H28.331V31.0306H28.461V30.9151H28.6488V31.0451H28.7788V30.9006H28.9521V31.1895C28.9521 31.2473 28.9232 31.2762 28.8799 31.2762H28.2444C28.201 31.2762 28.1577 31.2473 28.1577 31.204V30.9151Z" stroke="black" stroke-width="0.0722224"/>
<path d="M28.0719 31.7385V32.2296H27.4941V31.7385H28.0719Z" fill="#FFFF00" stroke="black" stroke-width="0.0722224"/>
<path d="M29.6032 31.7385V32.2296H29.0254V31.7385H29.6032Z" fill="#FFFF00" stroke="black" stroke-width="0.0722224"/>
<path d="M27.3926 31.3628H27.5659V31.5072H27.6959V31.3628H27.8692V31.5072H27.9992V31.3628H28.1726V31.6517C28.1726 31.7095 28.1437 31.7384 28.1004 31.7384H27.4792C27.4563 31.7384 27.4342 31.7292 27.418 31.713C27.4017 31.6967 27.3926 31.6747 27.3926 31.6517V31.3628Z" fill="#FFFF00" stroke="black" stroke-width="0.0722224"/>
<path d="M28.9238 31.3628H29.0972V31.5072H29.2272V31.3628H29.4005V31.5072H29.5305V31.3628H29.7038V31.6517C29.7038 31.7095 29.6749 31.7384 29.6316 31.7384H29.0105C28.9875 31.7384 28.9655 31.7292 28.9492 31.713C28.933 31.6967 28.9238 31.6747 28.9238 31.6517V31.3628Z" fill="#FFFF00" stroke="black" stroke-width="0.0722224"/>
<path d="M28.4902 31.5941C28.4902 31.5074 28.6202 31.5074 28.6202 31.5941V31.8252H28.4902V31.5941Z" fill="black"/>
<path d="M27.7246 31.9117C27.7246 31.825 27.8402 31.825 27.8402 31.9117V32.085H27.7246V31.9117Z" fill="black"/>
<path d="M29.2559 31.9117C29.2559 31.825 29.3714 31.825 29.3714 31.9117V32.085H29.2559V31.9117Z" fill="black"/>
<path d="M30.5641 40.5573C30.0106 39.9873 30.2743 39.4553 30.2743 39.4553C30.2845 39.445 30.8555 39.157 31.4192 39.7168L30.5744 40.5675" fill="#FFFF00"/>
<path d="M29.5305 40.2239L30.105 40.9368L30.5325 40.5064C29.9995 39.9771 30.3246 39.4857 30.3246 39.4857C30.3348 39.4755 30.8445 39.1877 31.3569 39.6762L31.7844 39.2457L31.047 38.6763L29.5203 40.2137L29.5305 40.2239ZM30.0847 40.9778L31.815 39.2354C31.8455 39.2046 31.9068 39.2044 31.9478 39.2451C31.999 39.296 31.9993 39.3573 31.9687 39.388L30.2384 41.1304C30.2079 41.1612 30.1466 41.1614 30.0954 41.1105C30.0544 41.0698 30.0542 41.0085 30.0949 40.9675L30.0847 40.9778Z" fill="#FFFF00" stroke="black" stroke-width="0.0722224"/>
<path d="M30.7062 40.3322C30.368 39.9963 30.5099 39.669 30.5099 39.669C30.5099 39.669 30.8464 39.535 31.1744 39.8607L30.7062 40.3322ZM29.1935 40.0106L30.8525 38.34C30.883 38.3092 30.9546 38.3192 30.9956 38.3599C31.0263 38.3904 31.0265 38.4517 30.996 38.4825L29.337 40.1531C29.3064 40.1839 29.2451 40.1841 29.2041 40.1434C29.1734 40.1128 29.1732 40.0516 29.2037 40.0208L29.1935 40.0106ZM29.3879 40.1223L30.9553 38.5439C30.9859 38.5131 31.0472 38.5129 31.0882 38.5536C31.1292 38.5944 31.1294 38.6556 31.0988 38.6864L29.5212 40.275C29.4805 40.316 29.4294 40.306 29.3884 40.2653C29.3474 40.2246 29.337 40.1736 29.3777 40.1326L29.3879 40.1223ZM28.8104 38.531L28.9325 38.408L29.0145 38.4894L29.1061 38.3971L29.0241 38.3157L29.1564 38.1825L29.2487 38.2741L29.3403 38.1818L29.2378 38.0801L29.3599 37.9571L29.5649 38.1606C29.6059 38.2013 29.6061 38.2422 29.5755 38.2729L29.1277 38.7239C29.0972 38.7547 29.0461 38.7651 29.0154 38.7345L28.8104 38.531ZM29.5553 38.3343L30.2418 38.9549L29.8041 39.3957L29.1685 38.7033L29.5451 38.3241" fill="#FFFF00"/>
<path d="M29.5553 38.3343L30.2418 38.9549L29.8041 39.3957L29.1685 38.7033L29.5451 38.3241M30.7062 40.3322C30.368 39.9963 30.5099 39.669 30.5099 39.669C30.5099 39.669 30.8464 39.535 31.1744 39.8607L30.7062 40.3322ZM29.1935 40.0106L30.8525 38.34C30.883 38.3092 30.9546 38.3192 30.9956 38.3599C31.0263 38.3904 31.0265 38.4517 30.996 38.4825L29.337 40.1531C29.3064 40.1839 29.2451 40.1841 29.2041 40.1434C29.1734 40.1128 29.1732 40.0516 29.2037 40.0208L29.1935 40.0106ZM29.3879 40.1223L30.9553 38.5439C30.9859 38.5131 31.0472 38.5129 31.0882 38.5536C31.1292 38.5944 31.1294 38.6556 31.0988 38.6864L29.5212 40.275C29.4805 40.316 29.4294 40.306 29.3884 40.2653C29.3474 40.2246 29.337 40.1736 29.3777 40.1326L29.3879 40.1223ZM28.8104 38.531L28.9325 38.408L29.0145 38.4894L29.1061 38.3971L29.0241 38.3157L29.1564 38.1825L29.2487 38.2741L29.3403 38.1818L29.2378 38.0801L29.3599 37.9571L29.5649 38.1606C29.6059 38.2013 29.6061 38.2422 29.5755 38.2729L29.1277 38.7239C29.0972 38.7547 29.0461 38.7651 29.0154 38.7345L28.8104 38.531Z" stroke="black" stroke-width="0.0722224"/>
<path d="M29.3329 39.1728L29.6814 39.5188L29.2743 39.9288L28.9258 39.5828L29.3329 39.1728Z" fill="#FFFF00" stroke="black" stroke-width="0.0722224"/>
<path d="M30.413 38.0864L30.7615 38.4324L30.3543 38.8424L30.0059 38.4963L30.413 38.0864Z" fill="#FFFF00" stroke="black" stroke-width="0.0722224"/>
<path d="M28.5879 39.3899L28.71 39.2669L28.8125 39.3687L28.9041 39.2764L28.8016 39.1747L28.9238 39.0517L29.0263 39.1534L29.1179 39.0612L29.0154 38.9594L29.1375 38.8364L29.3425 39.04C29.3835 39.0807 29.3836 39.1216 29.3531 39.1523L28.9154 39.593C28.8992 39.6093 28.8772 39.6185 28.8543 39.6186C28.8313 39.6187 28.8092 39.6097 28.7929 39.5935L28.5879 39.3899Z" fill="#FFFF00" stroke="black" stroke-width="0.0722224"/>
<path d="M29.668 38.3035L29.7901 38.1805L29.8926 38.2823L29.9842 38.19L29.8817 38.0882L30.0038 37.9652L30.1063 38.067L30.1979 37.9748L30.0954 37.873L30.2176 37.75L30.4226 37.9536C30.4636 37.9943 30.4637 38.0351 30.4332 38.0659L29.9955 38.5066C29.9793 38.5229 29.9573 38.5321 29.9343 38.5322C29.9113 38.5323 29.8893 38.5232 29.873 38.507L29.668 38.3035Z" fill="#FFFF00" stroke="black" stroke-width="0.0722224"/>
<path d="M29.5266 38.7736C29.4651 38.7125 29.5567 38.6203 29.6182 38.6813L29.7822 38.8442L29.6906 38.9364L29.5266 38.7736Z" fill="black"/>
<path d="M29.2121 39.5407C29.1506 39.4796 29.2321 39.3976 29.2936 39.4587L29.4166 39.5808L29.3351 39.6628L29.2121 39.5407Z" fill="black"/>
<path d="M30.2903 38.4542C30.2288 38.3932 30.3102 38.3112 30.3717 38.3723L30.4947 38.4944L30.4133 38.5764L30.2903 38.4542Z" fill="black"/>
<path d="M34.5586 26.8995C34.573 26.105 35.1364 25.9172 35.1364 25.9172C35.1508 25.9172 35.7575 26.1195 35.7575 26.9139H34.5586" fill="#FFFF00"/>
<path d="M34.0671 25.9317L33.9659 26.8417H34.5726C34.5726 26.0906 35.1504 25.975 35.1504 25.975C35.1648 25.975 35.7282 26.1339 35.7426 26.8417H36.3493L36.2337 25.9172H34.0671V25.9317ZM33.9226 26.8561H36.3782C36.4215 26.8561 36.4648 26.8995 36.4648 26.9572C36.4648 27.0295 36.4215 27.0728 36.3782 27.0728H33.9226C33.8793 27.0728 33.8359 27.0295 33.8359 26.9572C33.8359 26.8995 33.8793 26.8561 33.937 26.8561H33.9226Z" fill="#FFFF00" stroke="black" stroke-width="0.0722224"/>
<path d="M34.817 26.8418C34.817 26.3651 35.1492 26.2351 35.1492 26.2351C35.1492 26.2351 35.4815 26.3796 35.4815 26.8418H34.817ZM33.9792 25.5418H36.3337C36.377 25.5418 36.4204 25.5996 36.4204 25.6573C36.4204 25.7007 36.377 25.744 36.3337 25.744H33.9792C33.9359 25.744 33.8926 25.7007 33.8926 25.6429C33.8926 25.5996 33.9359 25.5562 33.9792 25.5562V25.5418ZM34.037 25.7585H36.2615C36.3048 25.7585 36.3481 25.8018 36.3481 25.8596C36.3481 25.9173 36.3048 25.9607 36.2615 25.9607H34.0226C33.9648 25.9607 33.9359 25.9173 33.9359 25.8596C33.9359 25.8018 33.9648 25.7585 34.0226 25.7585H34.037ZM34.7592 24.2273H34.9326V24.3429H35.0626V24.2273H35.2504V24.3573H35.3804V24.2129H35.5537V24.5018C35.5537 24.5596 35.5248 24.5884 35.4815 24.5884H34.8459C34.8026 24.5884 34.7592 24.5596 34.7592 24.5162V24.2273ZM35.4237 24.6173L35.467 25.5418H34.8459L34.8892 24.6029H35.4237" fill="#FFFF00"/>
<path d="M35.4237 24.6173L35.467 25.5418H34.8459L34.8892 24.6029H35.4237M34.817 26.8418C34.817 26.3651 35.1492 26.2351 35.1492 26.2351C35.1492 26.2351 35.4815 26.3796 35.4815 26.8418H34.817ZM33.9792 25.5418H36.3337C36.377 25.5418 36.4204 25.5996 36.4204 25.6573C36.4204 25.7007 36.377 25.744 36.3337 25.744H33.9792C33.9359 25.744 33.8926 25.7007 33.8926 25.6429C33.8926 25.5996 33.9359 25.5562 33.9792 25.5562V25.5418ZM34.037 25.7585H36.2615C36.3048 25.7585 36.3481 25.8018 36.3481 25.8596C36.3481 25.9173 36.3048 25.9607 36.2615 25.9607H34.0226C33.9648 25.9607 33.9359 25.9173 33.9359 25.8596C33.9359 25.8018 33.9648 25.7585 34.0226 25.7585H34.037ZM34.7592 24.2273H34.9326V24.3429H35.0626V24.2273H35.2504V24.3573H35.3804V24.2129H35.5537V24.5018C35.5537 24.5596 35.5248 24.5884 35.4815 24.5884H34.8459C34.8026 24.5884 34.7592 24.5596 34.7592 24.5162V24.2273Z" stroke="black" stroke-width="0.0722224"/>
<path d="M34.6735 25.0505V25.5416H34.0957V25.0505H34.6735Z" fill="#FFFF00" stroke="black" stroke-width="0.0722224"/>
<path d="M36.2047 25.0508V25.5419H35.627V25.0508H36.2047Z" fill="#FFFF00" stroke="black" stroke-width="0.0722224"/>
<path d="M33.9941 24.675H34.1675V24.8195H34.2975V24.675H34.4708V24.8195H34.6008V24.675H34.7741V24.9639C34.7741 25.0217 34.7453 25.0506 34.7019 25.0506H34.0808C34.0578 25.0506 34.0358 25.0415 34.0195 25.0252C34.0033 25.009 33.9941 24.9869 33.9941 24.9639V24.675Z" fill="#FFFF00" stroke="black" stroke-width="0.0722224"/>
<path d="M35.5254 24.675H35.6987V24.8195H35.8287V24.675H36.0021V24.8195H36.1321V24.675H36.3054V24.9639C36.3054 25.0217 36.2765 25.0506 36.2332 25.0506H35.6121C35.5891 25.0506 35.567 25.0415 35.5508 25.0252C35.5345 25.009 35.5254 24.9869 35.5254 24.9639V24.675Z" fill="#FFFF00" stroke="black" stroke-width="0.0722224"/>
<path d="M35.0918 24.9063C35.0918 24.8196 35.2218 24.8196 35.2218 24.9063V25.1374H35.0918V24.9063Z" fill="black"/>
<path d="M34.3262 25.2239C34.3262 25.1373 34.4417 25.1373 34.4417 25.2239V25.3973H34.3262V25.2239Z" fill="black"/>
<path d="M35.8574 25.2239C35.8574 25.1373 35.973 25.1373 35.973 25.2239V25.3973H35.8574V25.2239Z" fill="black"/>
<path d="M42.3145 26.8995C42.3 26.105 41.7367 25.9172 41.7367 25.9172C41.7222 25.9172 41.1156 26.1195 41.1156 26.9139H42.3145" fill="#FFFF00"/>
<path d="M42.806 25.9317L42.9071 26.8417H42.3004C42.3004 26.0906 41.7227 25.975 41.7227 25.975C41.7082 25.975 41.1449 26.1339 41.1304 26.8417H40.5238L40.6393 25.9172H42.806V25.9317ZM42.9504 26.8561H40.4949C40.4515 26.8561 40.4082 26.8995 40.4082 26.9572C40.4082 27.0295 40.4515 27.0728 40.4949 27.0728H42.9504C42.9938 27.0728 43.0371 27.0295 43.0371 26.9572C43.0371 26.8995 42.9938 26.8561 42.936 26.8561H42.9504Z" fill="#FFFF00" stroke="black" stroke-width="0.0722224"/>
<path d="M42.056 26.8418C42.056 26.3651 41.7238 26.2351 41.7238 26.2351C41.7238 26.2351 41.3916 26.3796 41.3916 26.8418H42.056ZM42.8938 25.5418H40.5394C40.496 25.5418 40.4527 25.5996 40.4527 25.6573C40.4527 25.7007 40.496 25.744 40.5394 25.744H42.8938C42.9371 25.744 42.9805 25.7007 42.9805 25.6429C42.9805 25.5996 42.9371 25.5562 42.8938 25.5562V25.5418ZM42.836 25.7585H40.6116C40.5682 25.7585 40.5249 25.8018 40.5249 25.8596C40.5249 25.9173 40.5682 25.9607 40.6116 25.9607H42.8505C42.9082 25.9607 42.9371 25.9173 42.9371 25.8596C42.9371 25.8018 42.9082 25.7585 42.8505 25.7585H42.836ZM42.1138 24.2273H41.9405V24.3429H41.8105V24.2273H41.6227V24.3573H41.4927V24.2129H41.3194V24.5018C41.3194 24.5596 41.3482 24.5884 41.3916 24.5884H42.0271C42.0705 24.5884 42.1138 24.5596 42.1138 24.5162V24.2273ZM41.4494 24.6173L41.406 25.5418H42.0271L41.9838 24.6029H41.4494" fill="#FFFF00"/>
<path d="M41.4494 24.6173L41.406 25.5418H42.0271L41.9838 24.6029H41.4494M42.056 26.8418C42.056 26.3651 41.7238 26.2351 41.7238 26.2351C41.7238 26.2351 41.3916 26.3796 41.3916 26.8418H42.056ZM42.8938 25.5418H40.5394C40.496 25.5418 40.4527 25.5996 40.4527 25.6573C40.4527 25.7007 40.496 25.744 40.5394 25.744H42.8938C42.9371 25.744 42.9805 25.7007 42.9805 25.6429C42.9805 25.5996 42.9371 25.5562 42.8938 25.5562V25.5418ZM42.836 25.7585H40.6116C40.5682 25.7585 40.5249 25.8018 40.5249 25.8596C40.5249 25.9173 40.5682 25.9607 40.6116 25.9607H42.8505C42.9082 25.9607 42.9371 25.9173 42.9371 25.8596C42.9371 25.8018 42.9082 25.7585 42.8505 25.7585H42.836ZM42.1138 24.2273H41.9405V24.3429H41.8105V24.2273H41.6227V24.3573H41.4927V24.2129H41.3194V24.5018C41.3194 24.5596 41.3482 24.5884 41.3916 24.5884H42.0271C42.0705 24.5884 42.1138 24.5596 42.1138 24.5162V24.2273Z" stroke="black" stroke-width="0.0722224"/>
<path d="M42.1996 25.0505V25.5416H42.7773V25.0505H42.1996Z" fill="#FFFF00" stroke="black" stroke-width="0.0722224"/>
<path d="M40.6683 25.0508V25.5419H41.2461V25.0508H40.6683Z" fill="#FFFF00" stroke="black" stroke-width="0.0722224"/>
<path d="M42.8789 24.675H42.7056V24.8195H42.5756V24.675H42.4022V24.8195H42.2722V24.675H42.0989V24.9639C42.0989 25.0217 42.1278 25.0506 42.1711 25.0506H42.7922C42.8152 25.0506 42.8373 25.0415 42.8535 25.0252C42.8698 25.009 42.8789 24.9869 42.8789 24.9639V24.675Z" fill="#FFFF00" stroke="black" stroke-width="0.0722224"/>
<path d="M41.3477 24.675H41.1743V24.8195H41.0443V24.675H40.871V24.8195H40.741V24.675H40.5677V24.9639C40.5677 25.0217 40.5965 25.0506 40.6399 25.0506H41.261C41.284 25.0506 41.306 25.0415 41.3223 25.0252C41.3385 25.009 41.3477 24.9869 41.3477 24.9639V24.675Z" fill="#FFFF00" stroke="black" stroke-width="0.0722224"/>
<path d="M41.7812 24.9063C41.7812 24.8196 41.6512 24.8196 41.6512 24.9063V25.1374H41.7812V24.9063Z" fill="black"/>
<path d="M42.5469 25.2239C42.5469 25.1373 42.4313 25.1373 42.4313 25.2239V25.3973H42.5469V25.2239Z" fill="black"/>
<path d="M41.0156 25.2239C41.0156 25.1373 40.9001 25.1373 40.9001 25.2239V25.3973H41.0156V25.2239Z" fill="black"/>
<path d="M42.3145 33.5872C42.3 32.7928 41.7367 32.605 41.7367 32.605C41.7222 32.605 41.1156 32.8072 41.1156 33.6016H42.3145" fill="#FFFF00"/>
<path d="M42.806 32.6194L42.9071 33.5294H42.3004C42.3004 32.7783 41.7227 32.6628 41.7227 32.6628C41.7082 32.6628 41.1449 32.8216 41.1304 33.5294H40.5238L40.6393 32.605H42.806V32.6194ZM42.9504 33.5439H40.4949C40.4515 33.5439 40.4082 33.5872 40.4082 33.645C40.4082 33.7172 40.4515 33.7605 40.4949 33.7605H42.9504C42.9938 33.7605 43.0371 33.7172 43.0371 33.645C43.0371 33.5872 42.9938 33.5439 42.936 33.5439H42.9504Z" fill="#FFFF00" stroke="black" stroke-width="0.0722224"/>
<path d="M42.056 33.5295C42.056 33.0529 41.7238 32.9229 41.7238 32.9229C41.7238 32.9229 41.3916 33.0673 41.3916 33.5295H42.056ZM42.8938 32.2295H40.5394C40.496 32.2295 40.4527 32.2873 40.4527 32.3451C40.4527 32.3884 40.496 32.4317 40.5394 32.4317H42.8938C42.9371 32.4317 42.9805 32.3884 42.9805 32.3306C42.9805 32.2873 42.9371 32.244 42.8938 32.244V32.2295ZM42.836 32.4462H40.6116C40.5682 32.4462 40.5249 32.4895 40.5249 32.5473C40.5249 32.6051 40.5682 32.6484 40.6116 32.6484H42.8505C42.9082 32.6484 42.9371 32.6051 42.9371 32.5473C42.9371 32.4895 42.9082 32.4462 42.8505 32.4462H42.836ZM42.1138 30.9151H41.9405V31.0306H41.8105V30.9151H41.6227V31.0451H41.4927V30.9006H41.3194V31.1895C41.3194 31.2473 41.3482 31.2762 41.3916 31.2762H42.0271C42.0705 31.2762 42.1138 31.2473 42.1138 31.204V30.9151ZM41.4494 31.3051L41.406 32.2295H42.0271L41.9838 31.2906H41.4494" fill="#FFFF00"/>
<path d="M41.4494 31.3051L41.406 32.2295H42.0271L41.9838 31.2906H41.4494M42.056 33.5295C42.056 33.0529 41.7238 32.9229 41.7238 32.9229C41.7238 32.9229 41.3916 33.0673 41.3916 33.5295H42.056ZM42.8938 32.2295H40.5394C40.496 32.2295 40.4527 32.2873 40.4527 32.3451C40.4527 32.3884 40.496 32.4317 40.5394 32.4317H42.8938C42.9371 32.4317 42.9805 32.3884 42.9805 32.3306C42.9805 32.2873 42.9371 32.244 42.8938 32.244V32.2295ZM42.836 32.4462H40.6116C40.5682 32.4462 40.5249 32.4895 40.5249 32.5473C40.5249 32.6051 40.5682 32.6484 40.6116 32.6484H42.8505C42.9082 32.6484 42.9371 32.6051 42.9371 32.5473C42.9371 32.4895 42.9082 32.4462 42.8505 32.4462H42.836ZM42.1138 30.9151H41.9405V31.0306H41.8105V30.9151H41.6227V31.0451H41.4927V30.9006H41.3194V31.1895C41.3194 31.2473 41.3482 31.2762 41.3916 31.2762H42.0271C42.0705 31.2762 42.1138 31.2473 42.1138 31.204V30.9151Z" stroke="black" stroke-width="0.0722224"/>
<path d="M42.1996 31.7385V32.2296H42.7773V31.7385H42.1996Z" fill="#FFFF00" stroke="black" stroke-width="0.0722224"/>
<path d="M40.6683 31.7385V32.2296H41.2461V31.7385H40.6683Z" fill="#FFFF00" stroke="black" stroke-width="0.0722224"/>
<path d="M42.8789 31.3628H42.7056V31.5072H42.5756V31.3628H42.4022V31.5072H42.2722V31.3628H42.0989V31.6517C42.0989 31.7095 42.1278 31.7384 42.1711 31.7384H42.7922C42.8152 31.7384 42.8373 31.7292 42.8535 31.713C42.8698 31.6967 42.8789 31.6747 42.8789 31.6517V31.3628Z" fill="#FFFF00" stroke="black" stroke-width="0.0722224"/>
<path d="M41.3477 31.3628H41.1743V31.5072H41.0443V31.3628H40.871V31.5072H40.741V31.3628H40.5677V31.6517C40.5677 31.7095 40.5965 31.7384 40.6399 31.7384H41.261C41.284 31.7384 41.306 31.7292 41.3223 31.713C41.3385 31.6967 41.3477 31.6747 41.3477 31.6517V31.3628Z" fill="#FFFF00" stroke="black" stroke-width="0.0722224"/>
<path d="M41.7812 31.5941C41.7812 31.5074 41.6512 31.5074 41.6512 31.5941V31.8252H41.7812V31.5941Z" fill="black"/>
<path d="M42.5469 31.9117C42.5469 31.825 42.4313 31.825 42.4313 31.9117V32.085H42.5469V31.9117Z" fill="black"/>
<path d="M41.0156 31.9117C41.0156 31.825 40.9001 31.825 40.9001 31.9117V32.085H41.0156V31.9117Z" fill="black"/>
<path d="M39.7093 40.5573C40.2628 39.9873 39.9991 39.4553 39.9991 39.4553C39.9889 39.445 39.418 39.157 38.8543 39.7168L39.699 40.5675" fill="#FFFF00"/>
<path d="M40.7429 40.2241L40.1685 40.9371L39.741 40.5066C40.2739 39.9773 39.9488 39.4859 39.9488 39.4859C39.9386 39.4757 39.4289 39.1879 38.9165 39.6764L38.4891 39.2459L39.2265 38.6765L40.7532 40.2139L40.7429 40.2241ZM40.1887 40.978L38.4585 39.2356C38.4279 39.2049 38.3666 39.2047 38.3256 39.2454C38.2744 39.2963 38.2742 39.3575 38.3047 39.3883L40.035 41.1307C40.0655 41.1614 40.1268 41.1616 40.1781 41.1108C40.2191 41.07 40.2193 41.0088 40.1786 40.9678L40.1887 40.978Z" fill="#FFFF00" stroke="black" stroke-width="0.0722224"/>
<path d="M39.5672 40.3322C39.9054 39.9963 39.7636 39.669 39.7636 39.669C39.7636 39.669 39.427 39.535 39.099 39.8607L39.5672 40.3322ZM41.08 40.0106L39.4209 38.34C39.3904 38.3092 39.3189 38.3192 39.2779 38.3599C39.2471 38.3904 39.2469 38.4517 39.2775 38.4825L40.9365 40.1531C40.967 40.1839 41.0283 40.1841 41.0693 40.1434C41.1 40.1128 41.1003 40.0516 41.0697 40.0208L41.08 40.0106ZM40.8855 40.1223L39.3181 38.5439C39.2876 38.5131 39.2263 38.5129 39.1853 38.5536C39.1443 38.5944 39.1441 38.6556 39.1746 38.6864L40.7522 40.275C40.7929 40.316 40.844 40.306 40.885 40.2653C40.926 40.2246 40.9364 40.1736 40.8957 40.1326L40.8855 40.1223ZM41.4631 38.531L41.3409 38.408L41.2589 38.4894L41.1673 38.3971L41.2493 38.3157L41.117 38.1825L41.0248 38.2741L40.9331 38.1818L41.0356 38.0801L40.9135 37.9571L40.7085 38.1606C40.6675 38.2013 40.6674 38.2422 40.6979 38.2729L41.1457 38.7239C41.1763 38.7547 41.2273 38.7651 41.2581 38.7345L41.4631 38.531ZM40.7181 38.3343L40.0316 38.9549L40.4693 39.3957L41.105 38.7033L40.7284 38.3241" fill="#FFFF00"/>
<path d="M40.7181 38.3343L40.0316 38.9549L40.4693 39.3957L41.105 38.7033L40.7284 38.3241M39.5672 40.3322C39.9054 39.9963 39.7636 39.669 39.7636 39.669C39.7636 39.669 39.427 39.535 39.099 39.8607L39.5672 40.3322ZM41.08 40.0106L39.4209 38.34C39.3904 38.3092 39.3189 38.3192 39.2779 38.3599C39.2471 38.3904 39.2469 38.4517 39.2775 38.4825L40.9365 40.1531C40.967 40.1839 41.0283 40.1841 41.0693 40.1434C41.1 40.1128 41.1003 40.0516 41.0697 40.0208L41.08 40.0106ZM40.8855 40.1223L39.3181 38.5439C39.2876 38.5131 39.2263 38.5129 39.1853 38.5536C39.1443 38.5944 39.1441 38.6556 39.1746 38.6864L40.7522 40.275C40.7929 40.316 40.844 40.306 40.885 40.2653C40.926 40.2246 40.9364 40.1736 40.8957 40.1326L40.8855 40.1223ZM41.4631 38.531L41.3409 38.408L41.2589 38.4894L41.1673 38.3971L41.2493 38.3157L41.117 38.1825L41.0248 38.2741L40.9331 38.1818L41.0356 38.0801L40.9135 37.9571L40.7085 38.1606C40.6675 38.2013 40.6674 38.2422 40.6979 38.2729L41.1457 38.7239C41.1763 38.7547 41.2273 38.7651 41.2581 38.7345L41.4631 38.531Z" stroke="black" stroke-width="0.0722224"/>
<path d="M40.9405 39.1725L40.5921 39.5186L40.9992 39.9286L41.3477 39.5825L40.9405 39.1725Z" fill="#FFFF00" stroke="black" stroke-width="0.0722224"/>
<path d="M39.8605 38.0861L39.512 38.4322L39.9191 38.8421L40.2676 38.4961L39.8605 38.0861Z" fill="#FFFF00" stroke="black" stroke-width="0.0722224"/>
<path d="M41.6855 39.3896L41.5634 39.2667L41.4609 39.3684L41.3693 39.2762L41.4718 39.1744L41.3497 39.0514L41.2472 39.1532L41.1556 39.061L41.2581 38.9592L41.1359 38.8362L40.9309 39.0397C40.8899 39.0805 40.8898 39.1213 40.9203 39.1521L41.358 39.5928C41.3742 39.6091 41.3962 39.6183 41.4192 39.6184C41.4422 39.6185 41.4642 39.6094 41.4806 39.5932L41.6855 39.3896Z" fill="#FFFF00" stroke="black" stroke-width="0.0722224"/>
<path d="M40.6055 38.3032L40.4833 38.1802L40.3808 38.282L40.2892 38.1898L40.3917 38.088L40.2696 37.965L40.1671 38.0668L40.0755 37.9745L40.178 37.8727L40.0559 37.7498L39.8509 37.9533C39.8099 37.994 39.8097 38.0349 39.8403 38.0656L40.2779 38.5064C40.2941 38.5227 40.3161 38.5319 40.3391 38.532C40.3621 38.532 40.3842 38.523 40.4005 38.5068L40.6055 38.3032Z" fill="#FFFF00" stroke="black" stroke-width="0.0722224"/>
<path d="M40.7468 38.7736C40.8083 38.7125 40.7167 38.6203 40.6552 38.6813L40.4913 38.8442L40.5829 38.9364L40.7468 38.7736Z" fill="black"/>
<path d="M41.0613 39.5407C41.1228 39.4796 41.0414 39.3976 40.9799 39.4587L40.8569 39.5808L40.9383 39.6628L41.0613 39.5407Z" fill="black"/>
<path d="M39.9832 38.4542C40.0447 38.3932 39.9632 38.3112 39.9018 38.3723L39.7788 38.4944L39.8602 38.5764L39.9832 38.4542Z" fill="black"/>
<path d="M34.0801 33.833C34.0775 34.1378 34.1911 34.4322 34.3979 34.6563C34.4944 34.7642 34.6123 34.8507 34.7441 34.9104C34.8759 34.9701 35.0188 35.0016 35.1635 35.003C35.4668 35.003 35.7412 34.8585 35.929 34.6563C36.1358 34.4322 36.2494 34.1378 36.2468 33.833V32.2729H34.0801V33.833Z" fill="#003399"/>
<path d="M34.5858 33.0818C34.7055 33.0818 34.8025 32.9848 34.8025 32.8651C34.8025 32.7454 34.7055 32.6484 34.5858 32.6484C34.4661 32.6484 34.3691 32.7454 34.3691 32.8651C34.3691 32.9848 34.4661 33.0818 34.5858 33.0818Z" fill="white"/>
<path d="M35.785 33.0818C35.9047 33.0818 36.0017 32.9848 36.0017 32.8651C36.0017 32.7454 35.9047 32.6484 35.785 32.6484C35.6654 32.6484 35.5684 32.7454 35.5684 32.8651C35.5684 32.9848 35.6654 33.0818 35.785 33.0818Z" fill="white"/>
<path d="M35.1776 33.6597C35.2973 33.6597 35.3943 33.5626 35.3943 33.443C35.3943 33.3233 35.2973 33.2263 35.1776 33.2263C35.0579 33.2263 34.9609 33.3233 34.9609 33.443C34.9609 33.5626 35.0579 33.6597 35.1776 33.6597Z" fill="white"/>
<path d="M34.5858 34.2663C34.7055 34.2663 34.8025 34.1693 34.8025 34.0497C34.8025 33.93 34.7055 33.833 34.5858 33.833C34.4661 33.833 34.3691 33.93 34.3691 34.0497C34.3691 34.1693 34.4661 34.2663 34.5858 34.2663Z" fill="white"/>
<path d="M35.785 34.2663C35.9047 34.2663 36.0017 34.1693 36.0017 34.0497C36.0017 33.93 35.9047 33.833 35.785 33.833C35.6654 33.833 35.5684 33.93 35.5684 34.0497C35.5684 34.1693 35.6654 34.2663 35.785 34.2663Z" fill="white"/>
<path d="M34.0801 30.0776C34.0775 30.3824 34.1911 30.6769 34.3979 30.9009C34.4944 31.0088 34.6123 31.0953 34.7441 31.155C34.8759 31.2147 35.0188 31.2462 35.1635 31.2476C35.4668 31.2476 35.7412 31.1031 35.929 30.9009C36.1358 30.6769 36.2494 30.3824 36.2468 30.0776V28.5176H34.0801V30.0776Z" fill="#003399"/>
<path d="M34.5858 29.3264C34.7055 29.3264 34.8025 29.2294 34.8025 29.1097C34.8025 28.9901 34.7055 28.8931 34.5858 28.8931C34.4661 28.8931 34.3691 28.9901 34.3691 29.1097C34.3691 29.2294 34.4661 29.3264 34.5858 29.3264Z" fill="white"/>
<path d="M35.785 29.3264C35.9047 29.3264 36.0017 29.2294 36.0017 29.1097C36.0017 28.9901 35.9047 28.8931 35.785 28.8931C35.6654 28.8931 35.5684 28.9901 35.5684 29.1097C35.5684 29.2294 35.6654 29.3264 35.785 29.3264Z" fill="white"/>
<path d="M35.1776 29.9043C35.2973 29.9043 35.3943 29.8073 35.3943 29.6876C35.3943 29.568 35.2973 29.4709 35.1776 29.4709C35.0579 29.4709 34.9609 29.568 34.9609 29.6876C34.9609 29.8073 35.0579 29.9043 35.1776 29.9043Z" fill="white"/>
<path d="M34.5858 30.511C34.7055 30.511 34.8025 30.414 34.8025 30.2943C34.8025 30.1746 34.7055 30.0776 34.5858 30.0776C34.4661 30.0776 34.3691 30.1746 34.3691 30.2943C34.3691 30.414 34.4661 30.511 34.5858 30.511Z" fill="white"/>
<path d="M35.785 30.511C35.9047 30.511 36.0017 30.414 36.0017 30.2943C36.0017 30.1746 35.9047 30.0776 35.785 30.0776C35.6654 30.0776 35.5684 30.1746 35.5684 30.2943C35.5684 30.414 35.6654 30.511 35.785 30.511Z" fill="white"/>
<path d="M31.0782 33.833C31.0756 34.1378 31.1892 34.4322 31.3959 34.6563C31.4924 34.7642 31.6103 34.8507 31.7422 34.9104C31.874 34.9701 32.0168 35.0016 32.1615 35.003C32.4648 35.003 32.7393 34.8585 32.9271 34.6563C33.1338 34.4322 33.2475 34.1378 33.2448 33.833V32.2729H31.0782V33.833Z" fill="#003399"/>
<path d="M31.5839 33.0818C31.7035 33.0818 31.8005 32.9848 31.8005 32.8651C31.8005 32.7454 31.7035 32.6484 31.5839 32.6484C31.4642 32.6484 31.3672 32.7454 31.3672 32.8651C31.3672 32.9848 31.4642 33.0818 31.5839 33.0818Z" fill="white"/>
<path d="M32.7831 33.0818C32.9027 33.0818 32.9997 32.9848 32.9997 32.8651C32.9997 32.7454 32.9027 32.6484 32.7831 32.6484C32.6634 32.6484 32.5664 32.7454 32.5664 32.8651C32.5664 32.9848 32.6634 33.0818 32.7831 33.0818Z" fill="white"/>
<path d="M32.1757 33.6597C32.2953 33.6597 32.3923 33.5626 32.3923 33.443C32.3923 33.3233 32.2953 33.2263 32.1757 33.2263C32.056 33.2263 31.959 33.3233 31.959 33.443C31.959 33.5626 32.056 33.6597 32.1757 33.6597Z" fill="white"/>
<path d="M31.5839 34.2663C31.7035 34.2663 31.8005 34.1693 31.8005 34.0497C31.8005 33.93 31.7035 33.833 31.5839 33.833C31.4642 33.833 31.3672 33.93 31.3672 34.0497C31.3672 34.1693 31.4642 34.2663 31.5839 34.2663Z" fill="white"/>
<path d="M32.7831 34.2663C32.9027 34.2663 32.9997 34.1693 32.9997 34.0497C32.9997 33.93 32.9027 33.833 32.7831 33.833C32.6634 33.833 32.5664 33.93 32.5664 34.0497C32.5664 34.1693 32.6634 34.2663 32.7831 34.2663Z" fill="white"/>
<path d="M37.084 33.833C37.0814 34.1378 37.195 34.4322 37.4018 34.6563C37.4983 34.7642 37.6162 34.8507 37.748 34.9104C37.8798 34.9701 38.0227 35.0016 38.1674 35.003C38.4707 35.003 38.7451 34.8585 38.9329 34.6563C39.1397 34.4322 39.2533 34.1378 39.2507 33.833V32.2729H37.084V33.833Z" fill="#003399"/>
<path d="M37.5897 33.0818C37.7094 33.0818 37.8064 32.9848 37.8064 32.8651C37.8064 32.7454 37.7094 32.6484 37.5897 32.6484C37.4701 32.6484 37.373 32.7454 37.373 32.8651C37.373 32.9848 37.4701 33.0818 37.5897 33.0818Z" fill="white"/>
<path d="M38.7889 33.0818C38.9086 33.0818 39.0056 32.9848 39.0056 32.8651C39.0056 32.7454 38.9086 32.6484 38.7889 32.6484C38.6693 32.6484 38.5723 32.7454 38.5723 32.8651C38.5723 32.9848 38.6693 33.0818 38.7889 33.0818Z" fill="white"/>
<path d="M38.1815 33.6597C38.3012 33.6597 38.3982 33.5626 38.3982 33.443C38.3982 33.3233 38.3012 33.2263 38.1815 33.2263C38.0618 33.2263 37.9648 33.3233 37.9648 33.443C37.9648 33.5626 38.0618 33.6597 38.1815 33.6597Z" fill="white"/>
<path d="M37.5897 34.2663C37.7094 34.2663 37.8064 34.1693 37.8064 34.0497C37.8064 33.93 37.7094 33.833 37.5897 33.833C37.4701 33.833 37.373 33.93 37.373 34.0497C37.373 34.1693 37.4701 34.2663 37.5897 34.2663Z" fill="white"/>
<path d="M38.7889 34.2663C38.9086 34.2663 39.0056 34.1693 39.0056 34.0497C39.0056 33.93 38.9086 33.833 38.7889 33.833C38.6693 33.833 38.5723 33.93 38.5723 34.0497C38.5723 34.1693 38.6693 34.2663 38.7889 34.2663Z" fill="white"/>
<path d="M34.0801 37.56C34.0775 37.8649 34.1911 38.1593 34.3979 38.3833C34.4944 38.4912 34.6123 38.5778 34.7441 38.6374C34.8759 38.6971 35.0188 38.7287 35.1635 38.73C35.4668 38.73 35.7412 38.5856 35.929 38.3833C36.1358 38.1593 36.2494 37.8649 36.2468 37.56V36H34.0801V37.56Z" fill="#003399"/>
<path d="M34.5858 36.8088C34.7055 36.8088 34.8025 36.7118 34.8025 36.5922C34.8025 36.4725 34.7055 36.3755 34.5858 36.3755C34.4661 36.3755 34.3691 36.4725 34.3691 36.5922C34.3691 36.7118 34.4661 36.8088 34.5858 36.8088Z" fill="white"/>
<path d="M35.785 36.8088C35.9047 36.8088 36.0017 36.7118 36.0017 36.5922C36.0017 36.4725 35.9047 36.3755 35.785 36.3755C35.6654 36.3755 35.5684 36.4725 35.5684 36.5922C35.5684 36.7118 35.6654 36.8088 35.785 36.8088Z" fill="white"/>
<path d="M35.1776 37.3867C35.2973 37.3867 35.3943 37.2897 35.3943 37.17C35.3943 37.0504 35.2973 36.9534 35.1776 36.9534C35.0579 36.9534 34.9609 37.0504 34.9609 37.17C34.9609 37.2897 35.0579 37.3867 35.1776 37.3867Z" fill="white"/>
<path d="M34.5858 37.9934C34.7055 37.9934 34.8025 37.8964 34.8025 37.7767C34.8025 37.6571 34.7055 37.5601 34.5858 37.5601C34.4661 37.5601 34.3691 37.6571 34.3691 37.7767C34.3691 37.8964 34.4661 37.9934 34.5858 37.9934Z" fill="white"/>
<path d="M35.785 37.9934C35.9047 37.9934 36.0017 37.8964 36.0017 37.7767C36.0017 37.6571 35.9047 37.5601 35.785 37.5601C35.6654 37.5601 35.5684 37.6571 35.5684 37.7767C35.5684 37.8964 35.6654 37.9934 35.785 37.9934Z" fill="white"/>
</svg>
