<svg width="24" height="20" viewBox="0 0 24 20" fill="none" xmlns="http://www.w3.org/2000/svg">
<path d="M23.25 0.859375H0.75C0.56352 0.859375 0.384677 0.933454 0.252815 1.06532C0.120954 1.19718 0.046875 1.37602 0.046875 1.5625V17.5C0.046875 17.9351 0.219726 18.3524 0.527403 18.6601C0.83508 18.9678 1.25238 19.1406 1.6875 19.1406H22.3125C22.7476 19.1406 23.1649 18.9678 23.4726 18.6601C23.7803 18.3524 23.9531 17.9351 23.9531 17.5V1.5625C23.9531 1.37602 23.879 1.19718 23.7472 1.06532C23.6153 0.933454 23.4365 0.859375 23.25 0.859375ZM12 10.9211L2.55703 2.26562H21.443L12 10.9211ZM8.91445 10L1.45312 16.8391V3.16094L8.91445 10ZM9.95508 10.9539L11.5312 12.393C11.6609 12.5116 11.8302 12.5773 12.0059 12.5773C12.1815 12.5773 12.3509 12.5116 12.4805 12.393L14.0508 10.9539L21.443 17.7344H2.5582L9.95508 10.9539ZM15.0855 10L22.5469 3.16094V16.8391L15.0855 10Z" fill="#DA2023"/>
</svg>
