<svg width="25" height="25" viewBox="0 0 25 25" fill="none" xmlns="http://www.w3.org/2000/svg">
<path d="M19.1337 13.3662C18.6449 12.8774 17.8549 12.8774 17.3662 13.3662L15.3737 15.3587C14.4499 15.0837 12.7262 14.4587 11.6337 13.3662C10.5412 12.2737 9.91618 10.5499 9.64118 9.6262L11.6337 7.6337C12.1224 7.14495 12.1224 6.35495 11.6337 5.8662L6.63368 0.866196C6.14493 0.377446 5.35493 0.377446 4.86618 0.866196L1.47618 4.2562C1.00118 4.7312 0.733679 5.3837 0.743679 6.04995C0.772429 7.82995 1.24368 14.0124 6.11618 18.8849C10.9887 23.7574 17.1712 24.2274 18.9524 24.2574C18.9587 24.2574 18.9812 24.2574 18.9874 24.2574C19.6474 24.2574 20.2712 23.9974 20.7437 23.5249L24.1337 20.1349C24.6224 19.6462 24.6224 18.8562 24.1337 18.3674L19.1337 13.3662ZM18.9749 21.7562C17.4149 21.7299 12.0774 21.3112 7.88368 17.1162C3.67618 12.9087 3.26868 7.55245 3.24368 6.0237L5.74993 3.51745L8.98243 6.74995L7.36618 8.3662C7.06743 8.6637 6.93993 9.0937 7.02618 9.5062C7.05618 9.64995 7.78993 13.0587 9.86493 15.1337C11.9399 17.2087 15.3487 17.9424 15.4924 17.9724C15.9087 18.0612 16.3349 17.9324 16.6324 17.6337L18.2499 16.0174L21.4824 19.2499L18.9749 21.7562Z" fill="#DA2023"/>
</svg>
