<svg width="24" height="24" viewBox="0 0 24 24" fill="none" xmlns="http://www.w3.org/2000/svg">
<path d="M23.25 22.5001C23.25 22.8316 23.1183 23.1496 22.8839 23.384C22.6495 23.6184 22.3315 23.7501 22 23.7501H2C1.66848 23.7501 1.35054 23.6184 1.11612 23.384C0.881696 23.1496 0.75 22.8316 0.75 22.5001V9.36263C0.749868 9.17214 0.793271 8.98415 0.876895 8.813C0.960519 8.64185 1.08215 8.49208 1.2325 8.37512L11.2325 0.596375C11.4519 0.425682 11.722 0.333008 12 0.333008C12.278 0.333008 12.5481 0.425682 12.7675 0.596375L22.7675 8.37512C22.9179 8.49208 23.0395 8.64185 23.1231 8.813C23.2067 8.98415 23.2501 9.17214 23.25 9.36263V22.5001Z" fill="#DA2023"/>
</svg>
